<?xml version="1.0" encoding="UTF-8" standalone="no"?>
<!-- Created with Inkscape (http://www.inkscape.org/) -->

<svg
   width="68.620506mm"
   height="77.998169mm"
   viewBox="0 0 68.620506 77.998169"
   version="1.1"
   id="svg5"
   inkscape:version="1.1 (1:1.1+202105261517+ce6663b3b7)"
   sodipodi:docname="Suavizador02.svg"
   xmlns:inkscape="http://www.inkscape.org/namespaces/inkscape"
   xmlns:sodipodi="http://sodipodi.sourceforge.net/DTD/sodipodi-0.dtd"
   xmlns:xlink="http://www.w3.org/1999/xlink"
   xmlns="http://www.w3.org/2000/svg"
   xmlns:svg="http://www.w3.org/2000/svg">
  <sodipodi:namedview
     id="namedview7"
     pagecolor="#ffffff"
     bordercolor="#999999"
     borderopacity="1"
     inkscape:pageshadow="0"
     inkscape:pageopacity="0"
     inkscape:pagecheckerboard="0"
     inkscape:document-units="mm"
     showgrid="false"
     fit-margin-top="0"
     fit-margin-left="0"
     fit-margin-right="0"
     fit-margin-bottom="0"
     inkscape:zoom="1.8973437"
     inkscape:cx="117.79627"
     inkscape:cy="182.62374"
     inkscape:window-width="1848"
     inkscape:window-height="1016"
     inkscape:window-x="72"
     inkscape:window-y="27"
     inkscape:window-maximized="1"
     inkscape:current-layer="layer1"
     showguides="true"
     inkscape:guide-bbox="true"
     inkscape:snap-page="true"
     inkscape:snap-bbox="true"
     inkscape:bbox-nodes="true"
     inkscape:snap-global="false">
    <sodipodi:guide
       position="57.271906,-2.433475"
       orientation="0,-1"
       id="guide1137" />
  </sodipodi:namedview>
  <defs
     id="defs2">
    <linearGradient
       x1="0"
       y1="0"
       x2="1"
       y2="0"
       gradientUnits="userSpaceOnUse"
       gradientTransform="matrix(0,-11.710247,-11.710247,0,220.10857,689.80051)"
       spreadMethod="pad"
       id="linearGradient4201">
      <stop
         style="stop-opacity:0.2;stop-color:#6e6cff"
         offset="0"
         id="stop4195" />
      <stop
         style="stop-opacity:0.30000001;stop-color:#9ac1f0"
         offset="0.50000024"
         id="stop4197" />
      <stop
         style="stop-opacity:0.30000001;stop-color:#0000ff"
         offset="1"
         id="stop4199" />
    </linearGradient>
    <linearGradient
       inkscape:collect="always"
       xlink:href="#linearGradient20840"
       id="linearGradient144894"
       gradientUnits="userSpaceOnUse"
       gradientTransform="matrix(-0.01425645,0.05985121,0.05985121,0.01425645,85.97513,384.83559)"
       x1="-4869.5688"
       y1="-758.98041"
       x2="-4599.5688"
       y2="-758.98041" />
    <linearGradient
       x1="0"
       y1="0"
       x2="1"
       y2="0"
       gradientUnits="userSpaceOnUse"
       gradientTransform="matrix(0,-11.710247,-11.710247,0,220.10857,689.80051)"
       spreadMethod="pad"
       id="linearGradient20840">
      <stop
         style="stop-opacity:0.30000001;stop-color:#0000ff"
         offset="0"
         id="stop20834" />
      <stop
         style="stop-opacity:0.30000001;stop-color:#9ac1f0"
         offset="0.50000024"
         id="stop20836" />
      <stop
         style="stop-opacity:0.30000001;stop-color:#3c8acb"
         offset="1"
         id="stop20838" />
    </linearGradient>
    <linearGradient
       inkscape:collect="always"
       xlink:href="#linearGradient4201"
       id="linearGradient144892"
       gradientUnits="userSpaceOnUse"
       gradientTransform="matrix(-0.05900556,0.01742862,0.01742862,0.05900556,-137.03503,249.78547)"
       x1="-4869.5688"
       y1="-758.98041"
       x2="-4599.5688"
       y2="-758.98041" />
  </defs>
  <g
     inkscape:label="Capa 1"
     inkscape:groupmode="layer"
     id="layer1"
     transform="translate(-72.051393,-60.465082)">
    <path
       id="path24914"
       style="fill:#4d4d4d;fill-opacity:0.994322;stroke:#000000;stroke-width:0.48;stroke-linecap:square;stroke-linejoin:bevel;stroke-miterlimit:4;stroke-dasharray:none;stop-color:#000000"
       d="m 73.80323,98.962974 c 1.89593,0.60461 6.64225,2.890316 15.63686,0.557 L 89.90623,127.37 c -0.98872,2.23325 -11.74703,3.00219 -13.18061,-2.42473 z"
       sodipodi:nodetypes="ccccc" />
    <path
       id="path24916"
       style="fill:#b3b3b3;fill-opacity:0.995692;stroke:#000000;stroke-width:0.48;stroke-linecap:square;stroke-linejoin:bevel;stroke-miterlimit:4;stroke-dasharray:none;stop-color:#000000"
       d="m 73.96806,94.043422 c 3.85666,-2.577678 11.73772,-2.344924 15.42622,-1.995251 l 0.0458,7.471803 c -5.19808,2.188566 -15.93177,1.374066 -17.09819,-1.68591 -0.16755,-1.44732 0.0146,-2.80407 1.62616,-3.790642 z"
       sodipodi:nodetypes="cccccc" />
    <path
       id="path24918"
       style="fill:#808080;fill-opacity:0.982832;stroke:#000000;stroke-width:0.48;stroke-linecap:square;stroke-linejoin:bevel;stroke-miterlimit:4;stroke-dasharray:none;stop-color:#000000"
       d="m 73.96806,94.043422 c 3.85666,-2.577678 11.73772,-2.344924 15.42622,-1.995251 l 0.0183,5.366813 c -3.92845,3.036286 -21.0876,0.75678 -15.44456,-3.371562 z"
       sodipodi:nodetypes="ccccc" />
    <path
       id="path24920"
       style="fill:#0000da;fill-opacity:1;stroke:#000000;stroke-width:0.48;stroke-linecap:square;stroke-linejoin:bevel;stroke-miterlimit:4;stroke-dasharray:none;stop-color:#000000"
       d="m 88.7638,75.467429 c 1.20769,-6.118755 13.03652,-4.434186 12.92352,-0.175677 l -0.54781,50.977618 c 0.0981,5.93711 -10.23469,5.53127 -11.30224,0.49109 z"
       sodipodi:nodetypes="ccccc" />
    <path
       id="path24922"
       style="fill:#000080;fill-opacity:0.938178;stroke:#000000;stroke-width:0.48;stroke-linecap:square;stroke-linejoin:bevel;stroke-miterlimit:4;stroke-dasharray:none;stop-color:#000000"
       d="m 92.6641,70.630373 v 1.110528 a 2.4560926,0.40623939 0 0 0 -5.1e-4,0.0026 2.4560926,0.40623939 0 0 0 2.45618,0.406694 2.4560926,0.40623939 0 0 0 2.45618,-0.406694 v -1.11311 z" />
    <path
       id="path24924"
       style="fill:#333333;fill-opacity:1;stroke:#000000;stroke-width:0.48;stroke-linecap:square;stroke-linejoin:bevel;stroke-miterlimit:4;stroke-dasharray:none;stop-color:#000000"
       d="m 87.89342,65.024998 5.24626,-0.236359 1.03712,2.438358 7.88777,-0.06274 -0.0662,2.662282 -3.69426,0.176663 -0.15922,0.804731 -5.4885,0.0318 c -3.24994,-0.05029 -3.38967,-0.571737 -3.33546,-4.363312 l -0.39912,-0.02264 z"
       sodipodi:nodetypes="ccccccccccc" />
    <path
       id="path24926"
       style="fill:#1a1a1a;fill-opacity:1;stroke:#000000;stroke-width:0.48;stroke-linecap:square;stroke-linejoin:bevel;stroke-miterlimit:4;stroke-dasharray:none;stop-color:#000000"
       d="m 89.83579,126.13425 c 0.0864,4.35773 10.11839,6.87537 11.34053,-0.0796 0.33302,-0.56972 0.0579,4.2308 0.0605,6.57943 -0.69433,3.7338 -8.48684,5.49525 -11.5345,0.60916 0.0306,-2.37862 -0.18172,-7.55031 0.13342,-7.12016 z"
       sodipodi:nodetypes="cccccc" />
    <path
       id="path24928"
       style="fill:#808080;fill-opacity:1;stroke:#000000;stroke-width:0.48;stroke-linecap:square;stroke-linejoin:bevel;stroke-miterlimit:4;stroke-dasharray:none;stop-color:#000000"
       d="m 86.47495,63.31805 c 2.08941,-2.481589 7.79574,-3.21005 14.23028,-2.122626 0.88739,1.329631 1.66106,4.016014 2.08615,6.081938 l -8.7012,0.102026 -1.06078,-2.440471 -6.36845,0.273058 z"
       sodipodi:nodetypes="ccccccc" />
    <path
       id="path24930"
       style="fill:#4c4c4c;fill-opacity:1;stroke:#000000;stroke-width:0.48;stroke-linecap:square;stroke-linejoin:bevel;stroke-miterlimit:4;stroke-dasharray:none;stop-color:#000000"
       d="m 95.64372,61.7989 4.97092,0.477541 1.43695,4.28654 c -1.40962,0.321316 -2.98393,0.178827 -4.6048,-0.09476 z"
       sodipodi:nodetypes="ccccc" />
    <path
       id="path24932"
       style="fill:#00ffff;fill-opacity:1;stroke:#000000;stroke-width:0.48;stroke-linecap:square;stroke-linejoin:bevel;stroke-miterlimit:4;stroke-dasharray:none;stop-color:#000000"
       d="m 97.91694,63.183857 2.41901,0.143579 0.38701,1.324864 -2.4314,-0.08777 z"
       sodipodi:nodetypes="ccccc" />
    <rect
       style="fill:#d4aa00;stroke:none;stroke-width:0.480261;stroke-linecap:square;stroke-linejoin:bevel;stop-color:#000000"
       id="rect144770"
       width="5.9709086"
       height="7.8772473"
       x="-119.59069"
       y="124.74082"
       transform="scale(-1,1)" />
    <path
       id="path5045"
       style="fill:#0000ff;fill-opacity:0.60000002;stroke:none;stroke-width:1.81516;stroke-linecap:butt;stroke-linejoin:miter;stroke-miterlimit:4;stroke-dasharray:none;stroke-opacity:1"
       d="m 107.58008,89.560547 c -2.58114,5.238794 -5.21283,10.155559 -8.957033,9.263672 l -6.554688,-1.5625 c 0.139238,-0.580819 -2.642163,-1.246595 -2.78125,-0.66211 l -4.455078,-1.060547 c 0.139314,-0.584515 -1.454663,-0.965344 -1.59375,-0.380859 l -1.427734,5.990237 -1.425781,5.98828 c -0.139238,0.58537 1.454663,0.96534 1.59375,0.38086 l 4.455078,1.06054 c -0.139238,0.58082 2.642163,1.24855 2.78125,0.66407 l 6.554687,1.56054 c 7.940029,1.8914 -0.347369,24.82562 7.707029,26.74415 -0.27806,1.16722 3.92143,2.16946 4.19922,1.00195 l 9.25,2.20312 c -0.2781,1.16703 3.73002,2.12258 4.00781,0.95508 l 37.72461,8.98438 c -0.27806,1.16715 2.7808,1.89601 3.0586,0.72851 l 9.72656,2.31836 c -0.2781,1.16765 11.52137,3.97702 14.52734,-8.64258 l 4.3125,-18.10937 4.31446,-18.10938 c 3.00597,-12.619567 -8.79447,-15.429227 -9.07227,-14.261716 l -9.72656,-2.318359 c 0.2781,-1.167148 -2.7808,-1.896023 -3.0586,-0.728516 l -8.42968,-2.007812 z"
       transform="matrix(0.26458333,0,0,0.26458333,72.051393,60.465082)" />
    <path
       style="fill:url(#linearGradient144894);fill-opacity:1;stroke:#000000;stroke-width:0.480261;stroke-linecap:butt;stroke-linejoin:miter;stroke-miterlimit:4;stroke-dasharray:none;stroke-opacity:1"
       d="m 121.25612,98.855066 c -0.79533,3.338934 -3.91727,2.595314 -3.84369,2.286374 l -2.57343,-0.61297 c -0.0735,0.3089 -0.88305,0.11598 -0.80948,-0.19283 l -9.98108,-2.377488 c -0.0735,0.308901 -1.13409,0.05616 -1.06051,-0.252617 l -2.44735,-0.582964 c -0.0735,0.308904 -1.18459,0.04418 -1.11102,-0.264648 -2.13106,-0.507611 0.0619,-6.57577 -2.0389,-7.076201 l -1.73443,-0.413145 c -0.0368,0.154645 -0.77265,-0.02162 -0.73581,-0.175295 l -1.17872,-0.28076 c -0.0368,0.154644 -0.45868,0.05427 -0.42184,-0.10061 l 0.37746,-1.58469 0.3775,-1.584657 c 0.0368,-0.154645 0.4587,-0.05428 0.42184,0.100373 l 1.17874,0.280784 c 0.0368,-0.154645 0.77264,0.02162 0.7358,0.175295 l 1.73441,0.413143 c 2.10095,0.500456 2.87899,-5.904765 5.01003,-5.397154 0.0738,-0.308904 1.18461,-0.04418 1.11103,0.264623 l 2.44736,0.582964 c 0.0735,-0.308904 1.13409,-0.05619 1.06051,0.252616 l 9.98108,2.377481 c 0.0735,-0.308903 0.88305,-0.115983 0.80947,0.192825 l 2.57343,0.613004 c 0.0735,-0.308904 3.19553,0.434731 2.4002,3.773659 l -1.14132,4.791341 z"
       id="path144772"
       sodipodi:nodetypes="ccccccccccccscscccccccccccccc" />
    <path
       style="fill:none;stroke:#000000;stroke-width:0.480261;stroke-linecap:butt;stroke-linejoin:miter;stroke-miterlimit:4;stroke-dasharray:none;stroke-opacity:1"
       d="M 103.15564,81.215209 99.42956,96.857972"
       id="path144774" />
    <path
       style="fill:none;stroke:#000000;stroke-width:0.480261;stroke-linecap:butt;stroke-linejoin:miter;stroke-miterlimit:4;stroke-dasharray:none;stroke-opacity:1"
       d="m 104.26667,81.479832 -3.72609,15.642763"
       id="path144776" />
    <path
       style="fill:none;stroke:#000000;stroke-width:0.480261;stroke-linecap:butt;stroke-linejoin:miter;stroke-miterlimit:4;stroke-dasharray:none;stroke-opacity:1"
       d="m 106.71403,82.062795 -3.7261,15.642764"
       id="path144778" />
    <path
       style="fill:none;stroke:#000000;stroke-width:0.480261;stroke-linecap:butt;stroke-linejoin:miter;stroke-miterlimit:4;stroke-dasharray:none;stroke-opacity:1"
       d="m 107.77454,82.315412 -3.7261,15.642763"
       id="path144780" />
    <path
       style="fill:none;stroke:#000000;stroke-width:0.480261;stroke-linecap:butt;stroke-linejoin:miter;stroke-miterlimit:4;stroke-dasharray:none;stroke-opacity:1"
       d="m 117.75562,84.692893 -3.7261,15.642777"
       id="path144782" />
    <path
       style="fill:none;stroke:#000000;stroke-width:0.480261;stroke-linecap:butt;stroke-linejoin:miter;stroke-miterlimit:4;stroke-dasharray:none;stroke-opacity:1"
       d="M 118.56509,84.885694 114.839,100.52847"
       id="path144784" />
    <path
       style="fill:none;stroke:#000000;stroke-width:0.480261;stroke-linecap:butt;stroke-linejoin:miter;stroke-miterlimit:4;stroke-dasharray:none;stroke-opacity:1"
       d="m 121.13852,85.498697 -3.72611,15.642743"
       id="path144786" />
    <path
       style="fill:none;stroke:#000000;stroke-width:0.480261;stroke-linecap:butt;stroke-linejoin:miter;stroke-miterlimit:4;stroke-dasharray:none;stroke-opacity:1"
       d="m 96.41117,86.19922 -0.75492,3.169381"
       id="path144788" />
    <path
       style="fill:none;stroke:#000000;stroke-width:0.480261;stroke-linecap:butt;stroke-linejoin:miter;stroke-miterlimit:4;stroke-dasharray:none;stroke-opacity:1"
       d="M 95.6754,86.023982 94.92045,89.19333"
       id="path144790" />
    <path
       style="fill:none;stroke:#000000;stroke-width:0.480261;stroke-linecap:butt;stroke-linejoin:miter;stroke-miterlimit:4;stroke-dasharray:none;stroke-opacity:1"
       d="M 94.49666,85.743199 93.74172,88.91257"
       id="path144792" />
    <rect
       style="fill:#d4aa00;stroke:none;stroke-width:0.480261;stroke-linecap:square;stroke-linejoin:bevel;stop-color:#000000"
       id="rect144794"
       width="5.9709086"
       height="7.8772473"
       x="-108.60104"
       y="124.7409"
       transform="scale(-1,1)" />
    <path
       id="path144796"
       style="fill:#ffcc00;stroke:none;stroke-width:0.0635344"
       d="m 111.05455,75.882514 c 0.0449,2.16e-4 0.0891,0.0012 0.13399,0.0038 v -0.0012 c 0.20555,0.0096 0.41281,0.04073 0.61798,0.0943 1.20898,0.314904 2.10793,1.280328 2.36393,2.538893 0.17578,0.864538 -0.0404,1.756773 -0.60308,2.496707 -0.36229,0.476299 -0.77209,0.801608 -1.262,1.000171 -0.36685,0.149121 -0.36921,0.150778 -0.38842,0.439278 l -0.0192,0.289133 h 1.45683 1.45682 l 0.0336,-0.299057 c 0.0262,-0.231006 0.0795,-0.340354 0.23198,-0.476508 l 0.19738,-0.177456 h 1.26945 1.2682 l 0.20723,0.186149 0.20723,0.1849 0.0192,2.197642 0.0192,2.196408 0.26804,0.0012 c 0.62494,6.24e-4 1.13089,0.311521 1.25456,0.770602 0.0438,0.160647 0.0606,0.980042 0.0485,2.270862 l -0.0192,2.018942 -0.17746,0.233167 c -0.23509,0.308159 -0.49426,0.433122 -0.97411,0.471544 l -0.39586,0.03217 -0.0217,1.245891 c -0.0192,1.246012 -0.0216,1.246972 -0.20963,1.587117 -0.10375,0.187061 -0.288,0.422268 -0.4095,0.522426 -0.39139,0.322711 -0.66974,0.375996 -1.95442,0.375996 h -1.16398 v 0.667586 0.666386 l 2.93847,0.0012 c 1.82909,2.4e-4 3.02805,0.02498 3.17548,0.0658 0.13015,0.03627 0.36562,0.163049 0.52243,0.282922 0.24296,0.185619 0.40528,0.242431 1.09696,0.382193 3.15394,0.636938 5.74939,2.380612 6.93294,4.657132 0.58954,1.13388 0.85864,2.28503 0.82646,3.53782 -0.0192,0.74719 -0.0168,0.7638 0.12294,0.78302 0.078,0.0119 0.1669,0.0677 0.19739,0.12655 0.11074,0.21252 1.46798,4.47302 1.46798,4.60749 0,0.14264 -3.08176,3.64705 -3.2921,3.7438 -0.14769,0.068 -0.96987,-0.15152 -1.04983,-0.28043 -0.0483,-0.0778 0.0382,-0.59501 0.32886,-1.97055 0.21684,-1.02531 0.39386,-1.987 0.39335,-2.13685 -0.002,-0.58354 -0.41748,-1.02728 -1.08579,-1.16148 -0.63855,-0.12823 -1.21362,0.16449 -1.42083,0.72344 -0.0545,0.14696 -0.27115,1.08135 -0.4827,2.07727 -0.21156,0.99589 -0.42377,1.85056 -0.47155,1.89859 -0.0733,0.074 -0.1532,0.0732 -0.51498,0.001 -0.23557,-0.0468 -0.48089,-0.1287 -0.54476,-0.18249 -0.0725,-0.061 -0.39139,-0.95555 -0.85126,-2.38505 -0.64773,-2.01666 -0.72621,-2.30258 -0.65273,-2.41977 0.0459,-0.073 0.78359,-0.90983 1.63925,-1.85887 1.21478,-1.34737 1.5884,-1.72485 1.70748,-1.72485 0.1484,0 0.15223,-0.0101 0.11051,-0.36484 -0.14912,-1.26814 -1.4428,-2.52842 -3.17798,-3.09481 -0.27385,-0.0893 -0.5104,-0.16257 -0.52241,-0.16257 -0.0144,0 -0.024,2.1926 -0.024,4.8718 0,4.44364 -0.0102,4.8813 -0.10544,4.98722 -0.0836,0.0922 -0.20076,0.1167 -0.57204,0.1167 h -0.4666 v 0.31768 0.31766 h 0.4666 c 0.71075,0 0.69351,-0.0438 0.66761,1.59953 -0.0192,1.25571 -0.0329,1.37583 -0.16641,1.6467 -0.2722,0.55239 -0.77236,0.93583 -1.365,1.04484 l -0.23821,0.0435 v 3.09732 3.09605 l -0.14264,0.20963 c -0.24404,0.35861 -0.43919,0.46081 -0.96416,0.50378 -0.26291,0.0217 -0.51377,0.0759 -0.55843,0.12031 -0.0572,0.057 -0.0912,0.41536 -0.11286,1.20987 -0.0302,1.07384 -0.0402,1.14141 -0.19114,1.36378 -0.0874,0.12846 -0.27347,0.29019 -0.41322,0.35986 h -10e-4 c -0.21756,0.10758 -0.38305,0.12654 -1.1466,0.12654 -0.79862,0 -0.92127,-0.0144 -1.17512,-0.14263 -0.20723,-0.10443 -0.32117,-0.21972 -0.42563,-0.42686 -0.13087,-0.25866 -0.14408,-0.37187 -0.14408,-1.298 0,-0.95444 -0.007,-1.02442 -0.13783,-1.16273 -0.1143,-0.1215 -0.20267,-0.14648 -0.51498,-0.14648 -0.4678,0 -0.80177,-0.17145 -0.99148,-0.50876 -0.13207,-0.23461 -0.13399,-0.29988 -0.13399,-3.32811 v -3.08862 h -1.96933 -1.96931 v 3.10351 3.10474 l -0.14408,0.20963 c -0.24509,0.36003 -0.43763,0.46009 -0.97161,0.5038 -0.67059,0.0548 -0.66389,0.0415 -0.66389,1.30791 0,0.94868 -0.012,1.0472 -0.14648,1.30297 -0.0999,0.18898 -0.23412,0.32324 -0.42315,0.42313 -0.25106,0.13183 -0.3592,0.14648 -1.17389,0.14648 -0.80472,0 -0.92728,-0.0144 -1.18136,-0.14264 -0.20723,-0.10442 -0.3224,-0.21971 -0.42686,-0.42685 -0.13087,-0.25898 -0.14263,-0.37119 -0.14263,-1.30544 0,-1.2624 0.007,-1.2507 -0.66264,-1.30545 -0.53398,-0.0436 -0.72778,-0.1436 -0.97287,-0.5038 l -0.14264,-0.20963 v -3.09977 -3.09979 l -0.34001,-0.098 c -0.43036,-0.12511 -0.86724,-0.50456 -1.08455,-0.94062 -0.16186,-0.32457 -0.16378,-0.34943 -0.16378,-1.74348 0,-1.62271 -0.0295,-1.54618 0.59937,-1.54618 h 0.35365 v -0.31767 -0.31766 h -0.5919 c -0.37487,0 -0.61786,-0.0285 -0.6664,-0.0769 -0.0569,-0.0581 -0.0768,-1.26572 -0.0768,-5.04676 v -4.96983 l -0.36482,-0.0732 c -2.48617,-0.49747 -4.40382,-1.428 -5.82732,-2.829254 -1.48878,-1.465493 -2.35034,-3.576675 -2.23362,-5.471158 l 0.036,-0.582003 -0.18106,-0.06315 c -0.17289,-0.06027 -0.21876,-0.172173 -0.95797,-2.38999 -0.4266,-1.279846 -0.76012,-2.362377 -0.7433,-2.404879 0.0466,-0.112383 3.07736,-3.555966 3.21517,-3.653216 0.0958,-0.0682 0.19547,-0.06591 0.56462,0.01873 0.24652,0.05617 0.48341,0.144678 0.52614,0.196066 0.0625,0.07516 6.6e-4,0.471186 -0.31394,2.012742 -0.21539,1.055708 -0.39139,2.013154 -0.39088,2.128153 0.002,0.462299 0.41768,0.96662 0.90586,1.098211 0.33962,0.09244 0.82747,0.08933 1.01381,-0.0072 0.24541,-0.126069 0.55271,-0.452093 0.61922,-0.657669 0.0349,-0.107342 0.23485,-1.032632 0.44424,-2.056186 0.2094,-1.023554 0.39658,-1.888549 0.41819,-1.922164 0.0216,-0.03362 0.11646,-0.0608 0.21347,-0.0608 0.28115,0 0.89104,0.137354 0.95179,0.214677 0.0852,0.108537 1.53303,4.500153 1.53128,4.644712 -0.002,0.187542 -3.16792,3.74298 -3.35666,3.769874 -0.13831,0.01922 -0.14552,0.04059 -0.10419,0.315195 0.0685,0.456511 0.26863,0.928895 0.56462,1.330249 0.7292,0.988784 1.92853,1.64542 3.68176,2.016472 0.0653,0.01443 0.24603,-0.07398 0.41076,-0.199791 0.16184,-0.123668 0.36679,-0.2567 0.4554,-0.296561 0.11018,-0.04971 1.12501,-0.08381 3.21148,-0.105414 l 3.04891,-0.03098 v -0.63536 -0.635337 l -1.2707,-0.03217 c -1.45159,-0.03627 -1.58736,-0.07564 -2.04625,-0.596868 -0.35786,-0.40666 -0.39957,-0.613532 -0.39957,-1.95939 v -1.174925 l -0.4393,-0.03098 c -0.52635,-0.0377 -0.80859,-0.190903 -1.00884,-0.547233 -0.13783,-0.243948 -0.14047,-0.300715 -0.14023,-2.337883 2.4e-4,-2.001028 0.007,-2.097128 0.13279,-2.30436 0.24422,-0.400489 0.61118,-0.578257 1.19749,-0.578257 h 0.25811 v -2.125675 c 0,-1.512532 0.0217,-2.17333 0.0757,-2.291954 0.14071,-0.308757 0.32055,-0.347456 1.60822,-0.347456 1.5055,0 1.68392,0.07372 1.68392,0.694913 v 0.258103 h 1.52385 1.52506 v -0.287957 c 0,-0.217798 -0.0264,-0.296262 -0.11051,-0.32388 -0.93697,-0.308586 -1.75417,-1.148036 -2.04999,-2.105817 -0.15608,-0.505353 -0.16713,-1.313129 -0.0247,-1.798074 0.41507,-1.413039 1.72538,-2.353151 3.11468,-2.346557 z m -0.0285,1.495297 a 1.8279603,1.7302055 0 0 0 -1.82785,1.729826 1.8279603,1.7302055 0 0 0 1.82785,1.72982 1.8279603,1.7302055 0 0 0 1.82786,-1.72982 1.8279603,1.7302055 0 0 0 -1.82786,-1.729826 z m -7.90333,47.287239 c 0.18826,0.002 0.34823,0.0504 0.39958,0.14648 0.0538,0.0982 0.054,0.17721 0.005,0.28664 -0.0559,0.12271 -0.11598,0.15008 -0.32636,0.15008 -0.18947,0 -0.29993,0.0417 -0.41447,0.15633 l -0.15632,0.15512 v 3.52915 3.52911 h 2.9546 2.95462 v -3.52911 -3.52915 l -0.15633,-0.15512 c -0.10352,-0.10352 -0.22764,-0.15633 -0.36853,-0.15633 -0.24423,0 -0.36483,-0.0944 -0.36483,-0.28541 0,-0.20964 0.12751,-0.28665 0.47527,-0.28665 0.23653,0 0.38209,0.0413 0.5497,0.15513 0.4488,0.30561 0.4368,0.18106 0.4368,4.19053 v 3.59615 h 0.35988 c 0.61742,0 0.59314,-0.087 0.59314,2.07481 v 1.86507 h 0.37847 c 0.48483,0 0.50796,0.0415 0.51996,0.94928 0.007,0.59632 -0.0102,0.72332 -0.10544,0.83018 l -0.001,-0.001 c -0.11186,0.12367 -0.20939,0.12656 -5.14355,0.12656 -3.82631,0 -5.04575,-0.0192 -5.10385,-0.0769 -0.10973,-0.10972 -0.10522,-1.66314 0.005,-1.75462 0.0446,-0.037 0.22332,-0.0749 0.39707,-0.087 l 0.3152,-0.0192 0.0168,-1.875 c 0.0192,-2.09578 0.002,-2.03261 0.47154,-2.03261 h 0.24198 v -3.59614 c 0,-4.00957 -0.0121,-3.88494 0.43679,-4.19056 0.15633,-0.10588 0.38661,-0.16232 0.59067,-0.16617 0,0 0.001,0 0.001,0 0.012,-2.8e-4 0.025,-1.1e-4 0.0372,0 z m 10.98451,0.001 c 0.1897,0.001 0.35285,0.0455 0.39958,0.1328 0.0363,0.0678 0.0657,0.15127 0.0657,0.1861 0,0.13255 -0.20866,0.26306 -0.42067,0.26306 -0.14985,0 -0.27035,0.0506 -0.376,0.15633 l -0.15633,0.15512 v 3.52914 3.52913 h 2.95583 2.95584 l -0.0168,-3.56265 -0.0168,-3.56387 -0.15008,-0.12151 c -0.0827,-0.0667 -0.24099,-0.12174 -0.35242,-0.12174 -0.23484,0 -0.35488,-0.0965 -0.35488,-0.28539 0,-0.20507 0.12439,-0.28667 0.44175,-0.28667 0.37995,0 0.69882,0.17553 0.87484,0.48273 l 0.14264,0.24817 0.001,3.60607 v 3.60482 h 0.36111 c 0.61742,0 0.59192,-0.0869 0.59192,2.07483 v 1.86506 h 0.38342 c 0.35253,0 0.38711,0.012 0.44426,0.16258 0.10465,0.27547 0.0776,1.43799 -0.0372,1.602 l -0.0991,0.14024 h -5.04429 -5.04305 l -0.0991,-0.14145 c -0.0545,-0.0776 -0.0991,-0.24886 -0.0991,-0.38093 0,-0.14432 -0.0298,-0.23942 -0.0757,-0.23942 -0.0593,0 -0.0593,-0.0168 0,-0.0768 0.0421,-0.0421 0.0757,-0.23557 0.0757,-0.4306 0,-0.49986 0.11074,-0.63656 0.51251,-0.63656 h 0.31394 v -1.84279 c 0,-1.75774 0.005,-1.84803 0.12655,-1.96933 0.0763,-0.0763 0.21252,-0.12654 0.34,-0.12654 h 0.21227 l 0.0423,-1.28681 c 0.0216,-0.70762 0.0421,-2.33131 0.0423,-3.60731 1.9e-4,-2.58644 0.002,-2.60328 0.44549,-2.90497 0.14167,-0.0963 0.36922,-0.1484 0.57454,-0.15272 0,0 0.001,0 0.001,0 0.012,-3e-4 0.0249,-8e-5 0.0372,0 z m -2.79329,13.10397 c 0.0102,6.6e-4 0.002,0.0262 -0.0168,0.0769 -0.024,0.0615 -0.0602,0.0974 -0.0795,0.0783 -0.0192,-0.0192 -1e-4,-0.071 0.0434,-0.11431 0.0274,-0.0274 0.0447,-0.0415 0.0521,-0.0408 z" />
    <rect
       style="fill:#d4aa00;fill-opacity:1;stroke:none;stroke-width:0.480261;stroke-linecap:square;stroke-linejoin:bevel;stop-color:#000000"
       id="rect144798"
       width="2.2336979"
       height="0.6970216"
       x="-106.50439"
       y="82.426353"
       transform="scale(-1,1)" />
    <path
       id="path3955"
       style="fill:#0000ff;fill-opacity:0.60000002;stroke:none;stroke-width:0.480261;stroke-linecap:butt;stroke-linejoin:miter;stroke-miterlimit:4;stroke-dasharray:none;stroke-opacity:1"
       d="m 123.57836,114.48057 c -1.62228,1.16749 -4.58644,2.15537 -4.15324,3.622 -0.30454,0.09 0.0189,1.18554 0.3235,1.09554 l 0.71262,2.41277 c -0.30455,0.09 0.004,1.13542 0.3085,1.04542 l 2.9068,9.84022 c -0.30443,0.0899 -0.0689,0.88799 0.23565,0.79789 l 0.74931,2.53679 c -0.30455,0.09 0.60461,3.16805 3.8964,2.19573 l 4.72323,-1.39526 4.72374,-1.39526 c 3.29178,-0.9723 2.38296,-4.05007 2.07842,-3.95997 l -0.74982,-2.53731 c 0.30446,-0.09 0.0689,-0.88798 -0.23565,-0.79789 l -2.90628,-9.84022 c 0.30456,-0.0899 -0.004,-1.13541 -0.30902,-1.04542 l -0.71262,-2.41277 c 0.0619,-0.0183 0.0972,-0.0792 0.11265,-0.16226 z" />
    <path
       style="fill:url(#linearGradient144892);fill-opacity:1;stroke:#000000;stroke-width:0.480261;stroke-linecap:butt;stroke-linejoin:miter;stroke-miterlimit:4;stroke-dasharray:none;stroke-opacity:1"
       d="m 128.55795,138.02692 c -3.29179,0.97231 -4.20089,-2.10553 -3.89634,-2.19549 l -0.74939,-2.53707 c -0.30453,0.0901 -0.54025,-0.70807 -0.23582,-0.79802 l -2.90648,-9.84008 c -0.30453,0.09 -0.61334,-0.95557 -0.3088,-1.04552 l -0.71266,-2.41278 c -0.30456,0.09 -0.62809,-1.00536 -0.32355,-1.09534 -0.62055,-2.10091 5.73407,-3.21951 5.12225,-5.29078 l -0.50505,-1.70992 c -0.15249,0.0451 -0.36678,-0.68035 -0.2142,-0.7254 l -0.34324,-1.1621 c -0.15248,0.0451 -0.27533,-0.37081 -0.12295,-0.41586 l 1.56229,-0.46147 1.56231,-0.46142 c 0.15248,-0.0451 0.27535,0.37084 0.1227,0.41586 l 0.34325,1.16209 c 0.15248,-0.0451 0.36677,0.68036 0.21419,0.72541 l 0.50507,1.70992 c 0.6118,2.07127 6.55435,-0.44239 7.17489,1.65853 0.30456,-0.0901 0.62809,1.00537 0.32353,1.09532 l 0.71268,2.41279 c 0.30454,-0.09 0.61337,0.95557 0.30881,1.04552 l 2.90649,9.84009 c 0.30456,-0.0901 0.54026,0.70807 0.2358,0.79802 l 0.7494,2.53706 c 0.30454,-0.0901 1.21364,2.98789 -2.07814,3.96019 l -4.72364,1.39522 z"
       id="path144800"
       sodipodi:nodetypes="ccccccccccccscscccccccccccccc" />
    <path
       style="fill:none;stroke:#000000;stroke-width:0.480261;stroke-linecap:butt;stroke-linejoin:miter;stroke-miterlimit:4;stroke-dasharray:none;stroke-opacity:1"
       d="M 134.84676,113.54748 119.425,118.10265"
       id="path144802" />
    <path
       style="fill:none;stroke:#000000;stroke-width:0.480261;stroke-linecap:butt;stroke-linejoin:miter;stroke-miterlimit:4;stroke-dasharray:none;stroke-opacity:1"
       d="m 135.17029,114.6428 -15.42176,4.55516"
       id="path144804" />
    <path
       style="fill:none;stroke:#000000;stroke-width:0.480261;stroke-linecap:butt;stroke-linejoin:miter;stroke-miterlimit:4;stroke-dasharray:none;stroke-opacity:1"
       d="m 135.88297,117.05559 -15.42176,4.55515"
       id="path144806" />
    <path
       style="fill:none;stroke:#000000;stroke-width:0.480261;stroke-linecap:butt;stroke-linejoin:miter;stroke-miterlimit:4;stroke-dasharray:none;stroke-opacity:1"
       d="m 136.19178,118.10111 -15.42176,4.55515"
       id="path144808" />
    <path
       style="fill:none;stroke:#000000;stroke-width:0.480261;stroke-linecap:butt;stroke-linejoin:miter;stroke-miterlimit:4;stroke-dasharray:none;stroke-opacity:1"
       d="m 139.09826,127.9412 -15.42175,4.55514"
       id="path144810" />
    <path
       style="fill:none;stroke:#000000;stroke-width:0.480261;stroke-linecap:butt;stroke-linejoin:miter;stroke-miterlimit:4;stroke-dasharray:none;stroke-opacity:1"
       d="m 139.33398,128.73922 -15.42176,4.55514"
       id="path144812" />
    <path
       style="fill:none;stroke:#000000;stroke-width:0.480261;stroke-linecap:butt;stroke-linejoin:miter;stroke-miterlimit:4;stroke-dasharray:none;stroke-opacity:1"
       d="m 140.08337,131.27628 -15.42178,4.55513"
       id="path144814" />
    <path
       style="fill:none;stroke:#000000;stroke-width:0.480261;stroke-linecap:butt;stroke-linejoin:miter;stroke-miterlimit:4;stroke-dasharray:none;stroke-opacity:1"
       d="m 127.16679,110.179 -3.12459,0.92294"
       id="path144816" />
    <path
       style="fill:none;stroke:#000000;stroke-width:0.480261;stroke-linecap:butt;stroke-linejoin:miter;stroke-miterlimit:4;stroke-dasharray:none;stroke-opacity:1"
       d="m 126.95253,109.45362 -3.1246,0.92292"
       id="path144818" />
    <path
       style="fill:none;stroke:#000000;stroke-width:0.480261;stroke-linecap:butt;stroke-linejoin:miter;stroke-miterlimit:4;stroke-dasharray:none;stroke-opacity:1"
       d="m 126.60929,108.29153 -3.1246,0.92292"
       id="path144820" />
    <circle
       style="fill:#ffeeaa;stroke-width:0.545016;stroke-linecap:square;stroke-linejoin:bevel;stop-color:#000000"
       id="circle144822"
       cx="-114.12005"
       cy="88.720184"
       r="1.3857127"
       transform="scale(-1,1)" />
    <circle
       style="fill:#ffeeaa;stroke:none;stroke-width:0.545016;stroke-linecap:square;stroke-linejoin:bevel;stop-color:#000000"
       id="circle144824"
       cx="-107.99767"
       cy="88.56176"
       r="1.3857127"
       transform="scale(-1,1)" />
    <rect
       style="fill:#0000ff;stroke:none;stroke-width:0.480261;stroke-linecap:square;stroke-linejoin:bevel;stop-color:#000000"
       id="rect144826"
       width="1.2348367"
       height="0.99728316"
       x="-105.76006"
       y="103.91442"
       transform="scale(-1,1)" />
    <rect
       style="fill:#ff00ff;stroke:none;stroke-width:0.480261;stroke-linecap:square;stroke-linejoin:bevel;stop-color:#000000"
       id="rect144828"
       width="1.3320487"
       height="0.97697145"
       x="-103.42193"
       y="103.88346"
       transform="scale(-1,1)" />
    <rect
       style="fill:#ffff00;stroke:none;stroke-width:0.480261;stroke-linecap:square;stroke-linejoin:bevel;stop-color:#000000"
       id="rect144830"
       width="1.0677811"
       height="1.0053039"
       x="-103.25051"
       y="106.12231"
       transform="scale(-1,1)" />
    <rect
       style="fill:#ff0000;stroke:none;stroke-width:0.480261;stroke-linecap:square;stroke-linejoin:bevel;stop-color:#000000"
       id="rect144832"
       width="1.098994"
       height="1.1011618"
       x="-105.68798"
       y="106.09917"
       transform="scale(-1,1)" />
    <rect
       style="fill:#00ff00;stroke:none;stroke-width:0.480261;stroke-linecap:square;stroke-linejoin:bevel;stop-color:#000000"
       id="rect144834"
       width="1.1216946"
       height="0.95791668"
       x="-105.72982"
       y="108.39925"
       transform="scale(-1,1)" />
    <rect
       style="fill:#ff0000;stroke:none;stroke-width:0.480261;stroke-linecap:square;stroke-linejoin:bevel;stop-color:#000000"
       id="rect144836"
       width="1.065326"
       height="0.8933574"
       x="-103.13555"
       y="108.33689"
       transform="scale(-1,1)" />
    <circle
       style="fill:#ffeeaa;stroke:none;stroke-width:0.480261;stroke-linecap:square;stroke-linejoin:bevel;stop-color:#000000"
       id="circle144838"
       cx="-103.99953"
       cy="101.70008"
       r="1.0481846"
       transform="scale(-1,1)" />
    <rect
       style="fill:#d4aa00;stroke-width:0.480261;stroke-linecap:square;stroke-linejoin:bevel;stop-color:#000000"
       id="rect144840"
       width="18.984613"
       height="1.1892557"
       x="-120.60925"
       y="112.24895"
       transform="scale(-1,1)" />
    <path
       id="path144842"
       style="fill:#d4aa00;stroke:none;stroke-width:0.0635344"
       d="m 100.08653,102.44794 -0.36483,-0.0732 c -2.48616,-0.49747 -4.40378,-1.42803 -5.82728,-2.829284 -1.48879,-1.465502 -2.35034,-3.576674 -2.23364,-5.471156 l 0.12895,-0.872513 4.08837,0.702452 c 0,0 0.1328,0.496734 0.1741,0.771323 0.0684,0.456511 0.26864,0.928895 0.56463,1.330248 0.7292,0.988784 1.92853,1.645444 3.68176,2.016497 z"
       inkscape:export-filename="/home/alex/path1099.png"
       inkscape:export-xdpi="192"
       inkscape:export-ydpi="192"
       sodipodi:nodetypes="ccsccccscc" />
    <path
       id="path144844"
       style="fill:#d4aa00;stroke:none;stroke-width:0.0635344"
       d="m 122.24383,98.151817 c 3.15394,0.636949 5.74938,2.380583 6.93293,4.657113 0.58954,1.13388 0.85861,2.28505 0.82643,3.53784 -0.0192,0.74719 -0.0168,0.7638 0.12295,0.78302 l -4.63223,-0.94199 c 0.1484,0 0.15225,-0.0101 0.1104,-0.36481 -0.14911,-1.26814 -1.44277,-2.52842 -3.17795,-3.09481 -0.27384,-0.0893 -0.51042,-0.16257 -0.52242,-0.16257 l -0.41003,-0.10498 -0.23221,-4.290612 z"
       inkscape:export-filename="/home/alex/path1099.png"
       inkscape:export-xdpi="192"
       inkscape:export-ydpi="192"
       sodipodi:nodetypes="cssccsscccc" />
    <path
       id="path144846"
       style="fill:#ffdd55;fill-opacity:1;stroke:none;stroke-width:0.0635344"
       d="m 114.39046,93.469471 2.11492,0.622226 0.30601,-2.051647 1.45823,0.314233 -0.0217,1.245868 c -0.0192,1.24601 -0.0216,1.246971 -0.20963,1.587115 -0.10374,0.187062 -0.28798,0.42227 -0.4095,0.522428 -0.39138,0.322735 -0.66974,0.375995 -1.95441,0.375995 h -1.16398 l -7.08522,0.03314 -1.27069,-0.03217 c -1.45159,-0.03627 -1.58736,-0.07564 -2.04624,-0.596891 -0.35787,-0.406661 -0.39958,-0.613533 -0.39958,-1.95939 v -1.175125 l 1.54771,-0.272308 0.28856,1.99063 1.82996,-0.590167 z"
       inkscape:export-filename="/home/alex/path1099.png"
       inkscape:export-xdpi="192"
       inkscape:export-ydpi="192"
       sodipodi:nodetypes="cccccccsccccsccccc" />
    <rect
       style="fill:#d4aa00;fill-opacity:1;stroke:none;stroke-width:0.480261;stroke-linecap:square;stroke-linejoin:bevel;stop-color:#000000"
       id="rect144848"
       width="2.2336979"
       height="0.6970216"
       x="-117.62286"
       y="82.426605"
       transform="scale(-1,1)" />
    <path
       style="fill:#000000;stroke-width:0.0635344"
       d="m 121.84434,138.32296 c 0.11479,-0.16401 0.14168,-1.32639 0.037,-1.60187 -0.0572,-0.15008 -0.0922,-0.16305 -0.44474,-0.16305 h -0.38278 v -1.86441 c 0,-2.16163 0.0247,-2.07472 -0.59271,-2.07472 h -0.36031 l -0.001,-3.60558 -0.001,-3.60558 -0.14192,-0.24752 c -0.17602,-0.30711 -0.49477,-0.48313 -0.87475,-0.48313 -0.31738,0 -0.44254,0.081 -0.44254,0.2859 0,0.18898 0.12031,0.28591 0.35511,0.28591 0.11141,0 0.27012,0.0548 0.35261,0.1215 l 0.15008,0.12151 0.0168,3.56355 0.0168,3.56357 h -2.95591 -2.95587 V 129.09 125.56095 l 0.15584,-0.15584 c 0.10566,-0.10566 0.22692,-0.15609 0.37666,-0.15609 0.21205,0 0.42041,-0.13039 0.42041,-0.26285 0,-0.0348 -0.0296,-0.11838 -0.0658,-0.1861 -0.0997,-0.18633 -0.73028,-0.17385 -1.01435,0.0192 -0.44201,0.3017 -0.44467,0.31926 -0.44487,2.9057 -7e-5,1.276 -0.0192,2.89896 -0.0418,3.60658 l -0.0418,1.28657 h -0.21227 c -0.1275,0 -0.26299,0.0506 -0.33935,0.12703 -0.12127,0.12127 -0.12703,0.21179 -0.12703,1.96955 v 1.84251 h -0.31409 c -0.40176,0 -0.51187,0.13688 -0.51187,0.63676 v 0.74688 c 0,0.13207 0.0444,0.30354 0.0989,0.3812 l 0.0989,0.1412 h 5.04362 5.04377 z m -9.61349,-0.42926 c -0.0559,0 -0.13351,-0.35667 -0.13471,-0.61947 l -7e-4,-0.14287 h 4.6062 4.60623 v 0.3812 0.38121 h -1.87427 c -3.79766,0.0372 -4.54852,0.054 -7.20277,-7e-5 z m 0.69049,-2.98751 v -1.6519 h 3.74856 3.74852 v 1.6519 1.65191 h -3.74852 -3.74856 z m -2.06579,3.43189 c 0.0965,-0.1069 0.11266,-0.23389 0.10521,-0.83017 -0.012,-0.90786 -0.0346,-0.94981 -0.5194,-0.94981 h -0.37897 v -1.86443 c 0,-2.16163 0.0247,-2.07472 -0.59269,-2.07472 h -0.36031 v -3.59597 c 0,-4.00945 0.012,-3.88526 -0.43683,-4.19087 -0.16761,-0.11383 -0.31338,-0.15489 -0.55001,-0.15489 -0.34774,0 -0.47448,0.0764 -0.47448,0.2859 0,0.19115 0.12078,0.2859 0.36505,0.2859 0.14096,0 0.26508,0.0525 0.36851,0.15609 l 0.15584,0.15584 v 3.52905 3.52904 h -2.95434 -2.95438 V 129.09 125.56095 l 0.15584,-0.15584 c 0.11455,-0.11455 0.22477,-0.15609 0.41435,-0.15609 0.21036,0 0.27118,-0.0281 0.3271,-0.1508 0.05,-0.1095 0.0489,-0.18778 -0.005,-0.2859 -0.10949,-0.20483 -0.71552,-0.19307 -1.02879,0.0192 -0.44977,0.30561 -0.43682,0.18129 -0.43682,4.19087 v 3.59597 h -0.24199 c -0.46863,0 -0.45408,-0.0627 -0.47233,2.03311 l -0.0168,1.87426 -0.31605,0.0192 c -0.17386,0.0119 -0.35252,0.0502 -0.39709,0.0872 -0.11051,0.0915 -0.11453,1.64457 -0.005,1.75441 0.0581,0.0581 1.27837,0.0763 5.10467,0.0763 4.93408,0 5.03056,-0.002 5.14248,-0.12607 z m -6.56847,-0.44839 -3.18304,0.002 v -0.38219 -0.38219 h 4.60622 4.60625 l -0.002,0.39708 c -0.001,0.2154 -0.002,0.31279 -0.0192,0.32771 -1.7627,0.0302 -2.83711,0.0349 -6.0075,0.0372 z m -2.35719,-2.98352 v -1.6519 h 3.74854 3.74854 v 1.6519 1.6519 h -3.74854 -3.74854 z m 15.78832,-7.43323 c 0.13975,-0.0697 0.32561,-0.23197 0.41297,-0.36046 0.15105,-0.22236 0.16041,-0.28957 0.19067,-1.36341 0.0216,-0.79452 0.0557,-1.15357 0.11286,-1.2104 0.0447,-0.0444 0.29611,-0.0984 0.55898,-0.11983 0.52497,-0.043 0.72019,-0.1448 0.96422,-0.50341 l 0.14287,-0.2101 v -3.09673 -3.09674 l 0.23821,-0.044 c 0.59264,-0.10905 1.09276,-0.49162 1.36495,-1.04401 0.13351,-0.27087 0.14552,-0.39144 0.16545,-1.64715 0.0259,-1.64316 0.0442,-1.59945 -0.6666,-1.59945 h -0.46665 v -0.31768 -0.31766 h 0.46665 c 0.37141,0 0.48813,-0.024 0.57182,-0.11623 0.0958,-0.10589 0.10521,-0.54385 0.10521,-4.98745 0,-2.67921 0.0101,-4.87126 0.024,-4.87126 0.012,0 0.24771,0.0733 0.52155,0.16257 1.73518,0.56642 3.02888,1.82604 3.17794,3.09418 0.0418,0.35461 0.0387,0.36475 -0.10972,0.36475 -0.11911,0 -0.49351,0.37819 -1.70829,1.72555 -0.85566,0.94904 -1.59319,1.78532 -1.63898,1.85839 -0.0735,0.11719 0.005,0.4034 0.65252,2.42006 0.45985,1.42949 0.7793,2.32385 0.85182,2.38485 0.0638,0.0538 0.30874,0.13592 0.54433,0.18274 0.36173,0.0718 0.44183,0.0716 0.51517,-0.002 0.0478,-0.048 0.25987,-0.90226 0.47133,-1.89816 0.21155,-0.99591 0.42904,-1.93091 0.48348,-2.0778 0.20723,-0.55882 0.78181,-0.8514 1.42037,-0.72317 0.6683,0.13424 1.08358,0.57889 1.08565,1.16242 5e-4,0.14984 -0.17649,1.11145 -0.39312,2.13673 -0.29077,1.37556 -0.37693,1.89179 -0.32864,1.96957 0.0799,0.12895 0.90154,0.34918 1.04939,0.28127 0.21035,-0.0968 3.29289,-3.6021 3.29289,-3.74469 0,-0.13447 -1.35831,-4.39431 -1.46895,-4.6068 -0.0304,-0.0589 -0.11935,-0.11598 -0.19739,-0.12703 -0.13904,-0.0192 -0.14144,-0.0355 -0.12223,-0.78272 0.0321,-1.25279 -0.23652,-2.40373 -0.82607,-3.53761 -1.18356,-2.27653 -3.77964,-4.020284 -6.93362,-4.657235 -0.69168,-0.139751 -0.85449,-0.196179 -1.09746,-0.381779 -0.1568,-0.119826 -0.39184,-0.247359 -0.52206,-0.283522 -0.14745,-0.04082 -1.34613,-0.0658 -3.17522,-0.06604 l -2.93848,-3.61e-4 v -0.667341 -0.667106 h 1.16409 c 1.28467,0 1.56341,-0.05379 1.95479,-0.376283 0.12152,-0.100137 0.30577,-0.335246 0.40943,-0.522379 0.1885,-0.340145 0.1885,-0.340745 0.20891,-1.586756 l 0.0217,-1.246467 0.39528,-0.0317 c 0.47985,-0.03842 0.73885,-0.164008 0.97397,-0.472168 l 0.17793,-0.233166 0.0192,-2.019182 c 0.012,-1.29082 -0.005,-2.10988 -0.0485,-2.270623 -0.12367,-0.459081 -0.62991,-0.770145 -1.25483,-0.770986 l -0.26764,-3.36e-4 -0.0192,-2.197205 -0.0192,-2.197214 -0.20746,-0.185382 -0.20747,-0.18538 h -1.26869 -1.2687 l -0.19786,0.176736 c -0.15248,0.136394 -0.20556,0.245462 -0.23174,0.476514 l -0.0338,0.299731 h -1.45651 -1.45651 l 0.0192,-0.289525 c 0.0192,-0.288421 0.0217,-0.290126 0.38846,-0.439198 0.48993,-0.198587 0.9002,-0.523555 1.26248,-0.999854 0.56282,-0.739937 0.77815,-1.632716 0.6023,-2.497258 -0.25598,-1.258569 -1.15459,-2.2237 -2.36358,-2.538607 -1.64136,-0.427528 -3.37727,0.582123 -3.86691,2.24913 -0.1424,0.484944 -0.13135,1.291733 0.0247,1.797087 0.29584,0.957783 1.113,1.797206 2.04994,2.105797 0.084,0.02762 0.11119,0.10662 0.11119,0.324512 v 0.287916 h -1.52483 -1.52482 v -0.258332 c 0,-0.621169 -0.17817,-0.694697 -1.68367,-0.694697 -1.28768,0 -1.46704,0.03866 -1.60777,0.347661 -0.054,0.118624 -0.0759,0.779486 -0.0759,2.292018 v 2.125406 h -0.25776 c -0.58633,0 -0.95408,0.177457 -1.1983,0.577945 -0.1263,0.207232 -0.13183,0.303188 -0.13206,2.304217 -2.7e-4,2.037167 0.002,2.094078 0.14023,2.338027 0.20027,0.356304 0.48273,0.50946 1.00912,0.547112 l 0.43869,0.03146 v 1.175341 c 0,1.345857 0.0423,1.552273 0.40013,1.958933 0.45891,0.521347 0.59435,0.560872 2.04597,0.59718 l 1.27069,0.0317 v 0.635337 0.635336 l -3.04965,0.0317 c -2.08647,0.02162 -3.10047,0.05475 -3.21057,0.104456 -0.0886,0.03986 -0.29336,0.173614 -0.45524,0.297256 -0.16473,0.125834 -0.34562,0.213724 -0.41089,0.200034 -1.75323,-0.371054 -2.95266,-1.028074 -3.68186,-2.016834 -0.29598,-0.401353 -0.49651,-0.873353 -0.56497,-1.329865 -0.0413,-0.274684 -0.0344,-0.295432 0.10397,-0.31517 0.18874,-0.02689 3.35531,-3.582165 3.35757,-3.769659 0.002,-0.144559 -1.4472,-4.536793 -1.53242,-4.645259 -0.0608,-0.07732 -0.66958,-0.215157 -0.95072,-0.215157 -0.097,0 -0.1933,0.02738 -0.21395,0.061 -0.0216,0.03338 -0.20892,0.898342 -0.41831,1.921896 -0.20939,1.023555 -0.40907,1.948824 -0.44381,2.056187 -0.0665,0.205551 -0.37393,0.532464 -0.61935,0.658556 -0.18633,0.09582 -0.67412,0.09965 -1.0137,0.0072 -0.48821,-0.131351 -0.90443,-0.635504 -0.9065,-1.097778 -5e-4,-0.115023 0.17554,-1.072758 0.39103,-2.128466 0.31479,-1.541554 0.37667,-1.937888 0.31424,-2.013121 -0.0427,-0.05162 -0.27944,-0.139516 -0.52593,-0.195706 -0.36926,-0.08404 -0.46869,-0.0874 -0.5645,-0.01921 -0.13783,0.09725 -3.16886,3.541333 -3.21534,3.653667 -0.0168,0.0425 0.31704,1.124433 0.74363,2.404254 0.73929,2.217842 0.78414,2.329911 0.95694,2.390135 l 0.1813,0.06315 -0.0358,0.582196 c -0.1167,1.894482 0.74542,4.005681 2.23419,5.47117 1.42352,1.401264 3.34089,2.332444 5.82703,2.829924 l 0.36534,0.073 v 4.97023 c 0,3.78105 0.0192,4.98849 0.0761,5.04651 0.0483,0.0483 0.29227,0.0763 0.66711,0.0763 h 0.59087 v 0.31768 0.31766 h -0.35362 c -0.62903,0 -0.59939,-0.0763 -0.59939,1.54634 0,1.39405 0.002,1.41967 0.16425,1.74426 0.21732,0.43606 0.65474,0.81508 1.08508,0.94019 l 0.33911,0.0984 v 3.09929 3.09928 l 0.14287,0.21012 c 0.24511,0.36012 0.43863,0.46042 0.9726,0.5041 0.66975,0.0548 0.66342,0.0423 0.66342,1.30466 0,0.93425 0.0119,1.04723 0.14287,1.30618 0.10442,0.20723 0.21924,0.32202 0.42645,0.42645 0.25407,0.12823 0.37657,0.14288 1.18127,0.14288 0.81468,0 0.92339,-0.0144 1.17445,-0.14624 0.18899,-0.0999 0.32298,-0.23389 0.42297,-0.42297 0.13519,-0.25576 0.14623,-0.35415 0.14623,-1.30283 0,-1.26625 -0.007,-1.25333 0.66342,-1.30813 0.53397,-0.0436 0.72749,-0.14407 0.9726,-0.5041 l 0.14287,-0.21012 v -3.1038 -3.10377 h 1.96957 1.96957 v 3.08864 c 0,3.02823 0.002,3.09333 0.13448,3.32807 0.18969,0.33745 0.52295,0.50852 0.99075,0.50852 0.31231,0 0.40118,0.0255 0.51551,0.14695 0.12991,0.13832 0.13808,0.20748 0.13808,1.16193 0,0.92612 0.012,1.03969 0.14287,1.29835 0.10442,0.20723 0.21924,0.32202 0.42643,0.42645 0.25383,0.12799 0.37674,0.14288 1.17538,0.14288 0.76354,-5e-5 0.92849,-0.0192 1.14605,-0.12679 z m -2.13929,-0.61373 c -0.10352,-0.0936 -0.11623,-0.2178 -0.11623,-1.13015 0,-0.93773 -0.0119,-1.04884 -0.14288,-1.30479 -0.20939,-0.40981 -0.40807,-0.52725 -0.98513,-0.58238 -0.77413,-0.074 -0.71441,0.20482 -0.71441,-3.3333 v -3.01085 h 2.91373 2.91375 l 0.0401,0.33354 c 0.0742,0.61781 0.0472,5.55556 -0.0312,5.72782 -0.0867,0.19043 -0.34888,0.29208 -0.75374,0.29208 -0.33121,0 -0.62626,0.16112 -0.85179,0.46503 -0.12007,0.16185 -0.13591,0.29037 -0.16473,1.32365 -0.0289,1.03888 -0.0432,1.15279 -0.15512,1.2345 -0.19235,0.14048 -1.79428,0.12799 -1.95243,-0.0144 z m -10.99734,-0.007 c -0.0812,-0.0903 -0.10397,-0.32312 -0.12103,-1.23446 -0.0192,-1.02152 -0.0331,-1.13949 -0.15392,-1.30244 -0.22548,-0.30401 -0.52054,-0.46511 -0.85179,-0.46511 -0.41072,0 -0.6959,-0.11073 -0.76705,-0.29784 -0.0331,-0.0874 -0.0591,-1.44359 -0.0591,-3.10538 v -2.95021 h 2.95438 2.95435 v 2.95021 c 0,1.66179 -0.0257,3.01798 -0.0591,3.10538 -0.071,0.18706 -0.35633,0.29784 -0.76705,0.29784 -0.33123,0 -0.62631,0.16112 -0.85176,0.46511 -0.12078,0.16305 -0.13472,0.28092 -0.15393,1.30244 -0.0168,0.91134 -0.0399,1.14424 -0.12103,1.23446 -0.0862,0.0961 -0.22331,0.11119 -1.00156,0.11119 -0.77819,0 -0.91525,-0.0144 -1.00155,-0.11119 z m -2.94237,-10.14908 c -0.14863,-0.0872 -0.33687,-0.26572 -0.41854,-0.39708 -0.13856,-0.22283 -0.14984,-0.31464 -0.16953,-1.36655 l -0.0217,-1.12775 h 10.10763 10.10712 v 1.08263 c 0,1.33152 -0.0783,1.55015 -0.66712,1.86122 -0.17145,0.0906 -1.1223,0.10081 -9.42929,0.10329 l -9.23866,0.002 -0.27008,-0.15825 z m 26.46689,-1.84972 c 0,-0.0485 0.15727,-0.83181 0.34943,-1.74097 0.36639,-1.73325 0.39869,-2.03819 0.25768,-2.43349 -0.28433,-0.79716 -1.0023,-1.2531 -1.96856,-1.2501 -0.49381,0.001 -0.81778,0.11502 -1.1653,0.40844 -0.39468,0.33316 -0.50663,0.6262 -0.84177,2.20358 -0.17338,0.81651 -0.34711,1.62035 -0.38585,1.78634 -0.0769,0.32897 -0.21011,0.39664 -0.31289,0.15873 -0.13471,-0.31137 -1.27554,-3.93731 -1.25664,-3.99401 0.0119,-0.0334 0.64794,-0.76006 1.41518,-1.61502 1.33982,-1.49298 1.4042,-1.55446 1.62752,-1.55446 0.34062,0 0.40736,-0.11958 0.40436,-0.72454 -0.0102,-1.73881 -1.47348,-3.28695 -3.79362,-4.00947 l -0.55592,-0.17314 v -1.06808 c 0,-1.132474 -0.0338,-1.267724 -0.31768,-1.267724 -0.0648,0 -0.1628,0.0449 -0.2178,0.0999 -0.0893,0.0893 -0.0999,0.735734 -0.0999,6.162844 v 6.063 h -10.29258 -10.29258 v -6.11837 c 0,-4.67402 -0.0192,-6.136364 -0.0763,-6.194604 -0.098,-0.098 -0.32132,-0.098 -0.41931,0 -0.0533,0.0533 -0.0763,0.39973 -0.0763,1.150684 v 1.07447 l -0.23821,-0.0423 c -0.47533,-0.0844 -0.45041,-0.0291 -0.3247,-0.71905 0.0619,-0.34036 0.11406,-0.69837 0.11551,-0.79557 0.002,-0.18563 -0.14985,-0.299764 -0.25738,-0.19211 -0.0438,0.0438 -0.30648,1.33515 -0.31128,1.5296 -7.2e-4,0.0291 -0.34723,-0.0629 -0.39429,-0.10464 -0.0245,-0.0216 0.0368,-0.35254 0.13614,-0.73524 0.0991,-0.38267 0.1657,-0.73441 0.14745,-0.781654 -0.0192,-0.0473 -0.0927,-0.0774 -0.16569,-0.0665 -0.11209,0.0168 -0.16184,0.130144 -0.31949,0.734004 -0.13976,0.53506 -0.21228,0.71454 -0.288,0.71379 -0.25811,-0.002 -0.26255,-0.0823 -0.0442,-0.79555 0.11719,-0.38253 0.19859,-0.733004 0.18106,-0.778814 -0.0168,-0.0459 -0.0908,-0.0747 -0.16257,-0.0642 -0.10611,0.0168 -0.17314,0.15249 -0.35724,0.730024 l -0.22668,0.71079 -0.20387,-0.0872 -0.20387,-0.0872 0.25155,-0.61824 c 0.28847,-0.708954 0.31575,-0.914944 0.12127,-0.914944 -0.0872,0 -0.15849,0.0682 -0.21515,0.20656 -0.0468,0.11358 -0.17626,0.427524 -0.28811,0.697704 l -0.20315,0.49121 -0.18514,-0.0958 c -0.10183,-0.0525 -0.18514,-0.10972 -0.18514,-0.12703 0,-0.0168 0.14528,-0.3206 0.32261,-0.674164 0.28499,-0.56795 0.31165,-0.6539 0.22837,-0.73706 -0.0519,-0.0519 -0.12367,-0.0759 -0.15969,-0.0536 -0.036,0.0216 -0.21563,0.32392 -0.39905,0.67025 l -0.33343,0.629654 -0.17481,-0.0905 c -0.0961,-0.0497 -0.1909,-0.11623 -0.21035,-0.14793 -0.0192,-0.0317 0.13592,-0.308854 0.34543,-0.615934 0.41122,-0.60272 0.47539,-0.81108 0.23941,-0.77725 -0.0958,0.0144 -0.26544,0.20003 -0.52418,0.57559 -0.21036,0.30544 -0.41377,0.55562 -0.45203,0.55598 -0.0382,3.6e-4 -0.12102,-0.0564 -0.18418,-0.12608 -0.11164,-0.12342 -0.10521,-0.13807 0.26812,-0.59294 0.4985,-0.60736 0.55054,-0.70555 0.42783,-0.80739 -0.11934,-0.09889 -0.2178,-0.0168 -0.74481,0.62726 l -0.382,0.46632 -0.16304,-0.16282 -0.16282,-0.16305 0.52183,-0.5346 c 0.36317,-0.372071 0.50987,-0.565713 0.48254,-0.636936 -0.0744,-0.194028 -0.2469,-0.100813 -0.76116,0.410736 l -0.51577,0.51311 -0.17218,-0.20459 c -0.0946,-0.11265 -0.14912,-0.22428 -0.12079,-0.24846 0.0281,-0.0242 0.28833,-0.224763 0.57812,-0.445661 0.33111,-0.25247 0.51968,-0.439051 0.50754,-0.502157 -0.041,-0.212996 -0.25928,-0.137114 -0.80005,0.278215 l -0.55063,0.422919 -0.14505,-0.179141 c -0.16881,-0.208426 -0.21851,-0.151524 0.58832,-0.675172 0.27953,-0.181538 0.50826,-0.372417 0.50826,-0.424334 0,-0.192344 -0.24978,-0.130871 -0.78472,0.193065 -0.30222,0.182979 -0.56983,0.343914 -0.59471,0.357601 -0.0249,0.01441 -0.10115,-0.08453 -0.16928,-0.218278 l -0.12391,-0.24306 0.64573,-0.285058 c 0.51116,-0.225722 0.64996,-0.314498 0.66603,-0.426279 0.0298,-0.206752 -0.13905,-0.18346 -0.82348,0.113341 -0.32295,0.139996 -0.61142,0.230525 -0.64106,0.200749 -0.0295,-0.02953 -0.0598,-0.133512 -0.0672,-0.231005 -0.012,-0.170733 0.0101,-0.18394 0.5902,-0.364853 0.69732,-0.216839 0.80332,-0.287557 0.68092,-0.454952 -0.0783,-0.107094 -0.11887,-0.101331 -0.75746,0.105662 l -0.67471,0.218759 -0.0661,-0.259773 c -0.0459,-0.180817 -0.0457,-0.272307 8.9e-4,-0.301075 0.0368,-0.02161 0.32836,-0.0766 0.64805,-0.119825 0.58493,-0.079 0.74005,-0.139516 0.74005,-0.288155 0,-0.143838 -0.18778,-0.158967 -0.78244,-0.06244 -0.78093,0.126548 -0.74239,0.134953 -0.74239,-0.158967 v -0.254129 h 0.62322 c 0.67219,0 0.89508,-0.07756 0.81595,-0.283713 -0.0379,-0.09918 -0.12078,-0.108775 -0.74096,-0.08765 l -0.69821,0.02401 v -0.269695 c 0,-0.149121 0.0279,-0.271035 0.0619,-0.271035 0.0341,0 0.54985,0.101816 1.14603,0.226202 1.27943,0.267002 1.48292,0.267578 1.513,0.0048 0.012,-0.100373 -0.0101,-0.214675 -0.0493,-0.254154 -0.0387,-0.03938 -0.76069,-0.215876 -1.60469,-0.392012 l -1.53454,-0.320333 -0.67958,-2.037721 -0.67963,-2.037696 1.36178,-1.549319 c 1.64576,-1.872406 1.49349,-1.715745 1.60222,-1.648508 0.0742,0.04586 0.0293,0.356449 -0.26976,1.864601 -0.31717,1.59965 -0.35159,1.847465 -0.29682,2.136318 0.11598,0.612187 0.41973,1.002351 1.00376,1.289882 0.37879,0.186581 0.4812,0.208673 0.96533,0.208193 0.4641,-3.12e-4 0.58784,-0.02473 0.86497,-0.170493 0.37199,-0.195706 0.64511,-0.483021 0.80446,-0.846049 0.0612,-0.139516 0.26931,-1.023939 0.46244,-1.965514 0.19307,-0.941574 0.36054,-1.721324 0.37199,-1.732802 0.11018,-0.110218 0.28412,0.30021 0.85948,2.029291 0.36262,1.089758 0.6623,2.01426 0.66597,2.054505 0.002,0.0401 -0.62919,0.791397 -1.40634,1.669288 -1.32843,1.50055 -1.42386,1.593961 -1.59384,1.559958 -0.30605,-0.06123 -0.3925,0.09269 -0.3906,0.694864 0.005,1.511044 1.17229,2.948606 3.02799,3.728286 0.45908,0.192819 1.43514,0.465259 1.9348,0.539889 0.28251,0.0423 0.30345,0.0344 0.50828,-0.19331 0.11743,-0.130631 0.32797,-0.289914 0.46776,-0.35419 0.24301,-0.111639 0.66093,-0.11695 9.54807,-0.118146 10.22357,-0.0011 9.53531,-0.02808 9.95964,0.382676 0.16185,0.15657 0.29087,0.20362 0.79418,0.28949 0.33052,0.0565 0.60794,0.10882 0.61654,0.11647 0.0102,0.007 -0.0415,0.32471 -0.11119,0.70433 -0.15369,0.836544 -0.15537,0.912874 -0.0216,0.963954 0.16785,0.0644 0.24269,-0.11187 0.36872,-0.867324 l 0.1179,-0.70745 0.19691,0.0421 c 0.10826,0.024 0.20819,0.0525 0.22212,0.0653 0.0144,0.0119 -0.0504,0.3048 -0.14288,0.64909 -0.21443,0.797574 -0.21924,0.980914 -0.0253,0.953364 0.12487,-0.0168 0.16713,-0.11118 0.33345,-0.735054 0.19138,-0.718 0.24759,-0.79762 0.46577,-0.65928 0.068,0.043 0.0464,0.17577 -0.11118,0.67952 -0.23893,0.764384 -0.24978,0.933724 -0.0581,0.905434 0.11286,-0.0168 0.17553,-0.13398 0.34951,-0.65565 0.11646,-0.349434 0.22572,-0.672104 0.2425,-0.717014 0.024,-0.0644 0.0708,-0.0608 0.22237,0.0168 0.10543,0.0545 0.19162,0.11141 0.19162,0.12607 0,0.0144 -0.1143,0.29064 -0.25415,0.612934 -0.29659,0.68382 -0.32466,0.90065 -0.11265,0.87023 0.11265,-0.0168 0.19474,-0.14648 0.40357,-0.64095 0.14409,-0.34138 0.27976,-0.638274 0.30127,-0.659794 0.0217,-0.0216 0.12559,-0.002 0.23125,0.0404 l 0.19211,0.0795 -0.35684,0.665284 c -0.32478,0.60546 -0.34787,0.67426 -0.25679,0.76534 0.14719,0.1472 0.2572,0.0291 0.58923,-0.63206 0.15465,-0.30766 0.31022,-0.55939 0.34605,-0.55939 0.0829,0 0.37837,0.19186 0.3782,0.24556 -4e-5,0.0216 -0.17145,0.28337 -0.38106,0.5804 -0.38469,0.5453 -0.45154,0.72182 -0.29603,0.78149 0.12775,0.0489 0.17962,-0.002 0.60769,-0.60719 0.3528,-0.49812 0.40734,-0.54923 0.52128,-0.48823 0.22764,0.12175 0.2058,0.23917 -0.11502,0.61531 -0.492,0.57703 -0.58628,0.71693 -0.54882,0.81452 0.0763,0.19883 0.27452,0.0721 0.69604,-0.44554 0.24047,-0.29521 0.45152,-0.53729 0.469,-0.53791 0.0168,-6.5e-4 0.10036,0.0559 0.18418,0.12559 l 0.15225,0.12678 -0.51768,0.53038 c -0.28472,0.29171 -0.51768,0.55895 -0.51768,0.59389 0,0.0349 0.0427,0.0991 0.0951,0.14239 0.08,0.0663 0.1825,-0.007 0.63704,-0.4499 l 0.54187,-0.52891 0.19499,0.19498 0.19499,0.19499 -0.40327,0.3046 c -0.54138,0.40889 -0.75272,0.60855 -0.75272,0.71103 0,0.21444 0.21924,0.13639 0.77058,-0.27411 l 0.5807,-0.43237 0.14744,0.18489 c 0.0812,0.10183 0.13688,0.19571 0.12391,0.20867 -0.012,0.012 -0.29013,0.18563 -0.61578,0.38371 -0.32567,0.19811 -0.60177,0.41017 -0.61359,0.47142 -0.0454,0.23581 0.18731,0.18491 0.78389,-0.17097 0.33175,-0.19786 0.62777,-0.34478 0.65778,-0.32624 0.0939,0.0579 0.22765,0.43936 0.16305,0.46477 -0.63637,0.25065 -1.2702,0.58023 -1.28738,0.66942 -0.0401,0.20795 0.18561,0.18777 0.8179,-0.0735 0.34874,-0.14408 0.64502,-0.26191 0.65841,-0.26191 0.0351,0 0.16858,0.39756 0.1424,0.4238 -0.0121,0.0119 -0.31956,0.11574 -0.68329,0.23029 -0.54216,0.17073 -0.6613,0.23052 -0.6613,0.33214 0,0.18563 0.1765,0.18659 0.76143,0.005 0.29032,-0.0906 0.57241,-0.16449 0.62686,-0.16449 0.11187,0 0.21996,0.42283 0.12871,0.50298 -0.0304,0.0268 -0.32463,0.0829 -0.65341,0.12487 -0.67537,0.0859 -0.70464,0.0968 -0.70464,0.26015 0,0.17002 0.0807,0.17867 0.78241,0.0821 0.34668,-0.0478 0.63853,-0.078 0.64855,-0.0678 0.0101,0.0101 0.0281,0.11911 0.0401,0.24133 l 0.0217,0.22237 -0.67695,0.0168 c -0.74212,0.0192 -0.91733,0.0942 -0.70995,0.30149 0.0951,0.0951 0.19691,0.10589 0.73283,0.0764 l 0.62231,-0.0343 v 0.28679 c 0,0.26491 -0.012,0.28427 -0.14289,0.25363 -0.0785,-0.0192 -0.64905,-0.14048 -1.26762,-0.27138 -0.92937,-0.1969 -1.14172,-0.22403 -1.22303,-0.15656 -0.11646,0.0965 -0.13111,0.41958 -0.0216,0.48687 0.0418,0.0259 0.76218,0.19402 1.60059,0.37359 l 1.52445,0.32651 0.65516,2.02768 c 0.36034,1.11522 0.6479,2.04749 0.63899,2.07168 -0.0102,0.0242 -0.65747,0.75794 -1.44129,1.63053 -1.32306,1.47291 -1.59278,1.71577 -1.59278,1.43424 z m -22.18625,-5.31045 c 0.0955,-0.0955 0.10419,-1.27773 0.0101,-1.45276 -0.0589,-0.10972 -0.13856,-0.12295 -0.74972,-0.12295 -0.44722,0 -0.7103,0.0264 -0.76016,0.0761 -0.0502,0.0502 -0.0761,0.31897 -0.0761,0.78737 0,0.58985 0.0168,0.71772 0.10036,0.7497 0.19043,0.073 1.39518,0.0423 1.47514,-0.0377 z m -1.00384,-0.71794 c 0,-0.2118 0.0102,-0.22236 0.22236,-0.22236 0.21179,0 0.22236,0.0101 0.22236,0.22236 0,0.2118 -0.0102,0.22235 -0.22236,0.22235 -0.2118,0 -0.22236,-0.0101 -0.22236,-0.22235 z m -1.39998,0.67129 c 0.0363,-0.0674 0.0657,-0.39432 0.0657,-0.72612 0,-0.79754 -0.005,-0.80287 -0.85447,-0.80287 -0.81671,0 -0.82159,0.005 -0.85097,0.79694 -0.0319,0.86037 -0.0372,0.85494 0.84772,0.85494 0.65292,0 0.73281,-0.0119 0.79196,-0.12295 z m -1.01433,-0.67129 c 0,-0.2118 0.0101,-0.22236 0.22235,-0.22236 0.2118,0 0.22236,0.0101 0.22236,0.22236 0,0.2118 -0.0102,0.22235 -0.22236,0.22235 -0.2118,0 -0.22235,-0.0101 -0.22235,-0.22235 z m 3.41625,-1.50386 c 0.12415,-0.12415 0.10612,-1.34996 -0.0216,-1.47771 -0.13615,-0.13616 -1.37138,-0.14577 -1.48288,-0.012 -0.0487,0.0586 -0.0674,0.33246 -0.0555,0.81008 l 0.0168,0.72155 0.73194,0.0168 c 0.51522,0.0121 0.75506,-0.005 0.81006,-0.0602 z m -1.00194,-0.71985 c 0,-0.21178 0.0102,-0.22235 0.22236,-0.22235 0.21179,0 0.22236,0.0101 0.22236,0.22235 0,0.2118 -0.0102,0.22237 -0.22236,0.22237 -0.2118,0 -0.22236,-0.0101 -0.22236,-0.22237 z m -1.39998,0.67129 c 0.0363,-0.0674 0.0657,-0.39194 0.0657,-0.7208 0,-0.79123 -0.0192,-0.8082 -0.87082,-0.8082 -0.79815,0 -0.8053,0.007 -0.83462,0.79697 -0.0319,0.86036 -0.0372,0.85494 0.84772,0.85494 0.65292,0 0.73281,-0.0121 0.79196,-0.12295 z m -1.01433,-0.67129 c 0,-0.21178 0.0101,-0.22235 0.22235,-0.22235 0.2118,0 0.22236,0.0101 0.22236,0.22235 0,0.2118 -0.0102,0.22237 -0.22236,0.22237 -0.2118,0 -0.22235,-0.0101 -0.22235,-0.22237 z m 3.41625,-1.50386 c 0.0516,-0.0516 0.078,-0.29853 0.078,-0.728 0,-0.84552 -0.005,-0.84956 -0.81834,-0.84956 -0.85411,0 -0.84228,-0.0119 -0.81988,0.89026 l 0.0168,0.72988 0.73191,0.0168 c 0.51523,0.012 0.75507,-0.005 0.81008,-0.0602 z m -1.00194,-0.71983 c 0,-0.2118 0.0102,-0.22237 0.22236,-0.22237 0.21179,0 0.22236,0.0101 0.22236,0.22237 0,0.2118 -0.0102,0.22236 -0.22236,0.22236 -0.2118,0 -0.22236,-0.0101 -0.22236,-0.22236 z m -1.39998,0.67128 c 0.0363,-0.0677 0.0657,-0.39194 0.0657,-0.7208 0,-0.79125 -0.0192,-0.80821 -0.87082,-0.80821 -0.79815,0 -0.8053,0.007 -0.83462,0.79695 -0.0319,0.86038 -0.0372,0.85496 0.84772,0.85496 0.65292,0 0.73281,-0.012 0.79196,-0.12295 z m -1.01433,-0.67128 c 0,-0.2118 0.0101,-0.22237 0.22235,-0.22237 0.2118,0 0.22236,0.0101 0.22236,0.22237 0,0.2118 -0.0102,0.22236 -0.22236,0.22236 -0.2118,0 -0.22235,-0.0101 -0.22235,-0.22236 z m 1.85577,-1.55585 c 0.66396,-0.20027 1.00628,-1.02407 0.68619,-1.6515 -0.2901,-0.56866 -1.00867,-0.80544 -1.57204,-0.51804 -0.25849,0.13184 -0.4894,0.36928 -0.55417,0.56979 -0.0192,0.0583 -0.12006,0.15465 -0.225,0.2142 -0.28551,0.16208 -0.23629,0.55887 0.0691,0.55887 0.0598,0 0.12414,0.0661 0.14479,0.14865 0.0504,0.20051 0.42917,0.56146 0.68761,0.65509 0.24376,0.0884 0.51921,0.0965 0.76342,0.024 z m -0.72099,-0.69751 -0.15009,-0.12486 0.32903,-0.002 c 0.48679,-0.002 0.67268,-0.2394 0.40162,-0.51037 -0.0862,-0.0862 -0.21396,-0.12775 -0.39708,-0.12919 l -0.27003,-0.002 0.15008,-0.12486 c 0.20724,-0.17266 0.41781,-0.15633 0.63983,0.0497 0.27038,0.25096 0.28554,0.56643 0.0391,0.81295 -0.19402,0.19403 -0.52979,0.2082 -0.74236,0.031 z m 14.76122,10.75108 0.0192,-0.3018 0.87359,-0.0168 0.87362,-0.0168 v 0.31947 0.31946 h -0.89297 -0.89297 z m -2.29963,-0.0168 v -0.31766 h 0.8577 0.85773 v 0.31766 0.31767 h -0.85773 -0.8577 z m -2.35077,0 v -0.31766 h 0.85772 0.85769 v 0.31766 0.31767 h -0.85769 -0.85772 z m -2.35079,0 v -0.31766 h 0.85773 0.85772 v 0.31766 0.31767 h -0.85772 -0.85773 z m -2.35077,0 v -0.31766 h 0.85773 0.85771 v 0.31766 0.31767 h -0.85771 -0.85773 z m -2.35078,0 v -0.31766 h 0.85774 0.85771 v 0.31766 0.31767 h -0.85771 -0.85771 z m -2.35075,-0.002 v -0.31946 l 0.87359,0.0168 0.8736,0.0168 0.0192,0.30178 0.0192,0.30178 h -0.89297 -0.89296 z m -2.35077,0.002 v -0.31766 h 0.88946 0.88949 v 0.31766 0.31767 h -0.88949 -0.88946 z m 6.04943,-16.121884 -0.0192,-0.651209 h 2.92481 2.92481 v 0.667754 0.667754 l -2.9067,-0.01681 -2.90672,-0.01681 z m -3.20308,-1.400944 c -0.12919,-0.08045 -0.30081,-0.251944 -0.3812,-0.381207 -0.13664,-0.219718 -0.14744,-0.313081 -0.1669,-1.426324 l -0.0216,-1.191262 h 0.35439 0.3544 v 0.499591 c 0,0.762653 0.0912,1.151977 0.31838,1.358776 0.26036,0.237008 0.43521,0.224762 1.35319,-0.09533 l 0.77451,-0.270002 h 3.52616 3.52617 l 0.87998,0.279655 c 0.99221,0.315338 1.22137,0.313153 1.4647,-0.01441 0.11381,-0.152962 0.13783,-0.296584 0.16496,-0.984773 l 0.0317,-0.805781 0.3018,-0.01922 0.30176,-0.01922 v 1.232997 c 0,1.174092 -0.007,1.243057 -0.14287,1.443062 -0.18323,0.269018 -0.41999,0.443327 -0.69079,0.508307 -0.1179,0.02834 -2.80201,0.04682 -5.96445,0.04131 l -5.74986,-0.0096 z m 10.50142,-1.871069 -0.79973,-0.270027 h -3.55794 -3.55793 l -0.81491,0.274973 c -0.4482,0.151283 -0.8556,0.259316 -0.90536,0.240251 -0.0723,-0.02762 -0.0906,-0.213236 -0.0906,-0.922605 0,-1.085868 1.4e-4,-1.085676 -0.80833,-1.085676 h -0.52591 v -1.861561 c 0,-1.36317 -0.0192,-1.881972 -0.0763,-1.937802 -0.0449,-0.0449 -0.26119,-0.07636 -0.52732,-0.07636 -0.48166,0 -0.60359,0.05955 -0.60359,0.295024 0,0.175295 0.22236,0.340336 0.45889,0.340336 0.13399,0 0.17649,0.03049 0.17649,0.12703 0,0.09941 -0.0423,0.127029 -0.19475,0.127029 -0.27603,0 -0.44056,0.105898 -0.44056,0.283593 0,0.214436 0.16281,0.351742 0.41751,0.351742 0.17553,0 0.2178,0.02473 0.2178,0.127029 0,0.102291 -0.0423,0.12703 -0.2178,0.12703 -0.23989,0 -0.41751,0.135193 -0.41751,0.317667 0,0.1825 0.17769,0.317668 0.41751,0.317668 0.17553,0 0.2178,0.02473 0.2178,0.127029 0,0.102291 -0.0423,0.127029 -0.2178,0.127029 -0.23989,0 -0.41751,0.135194 -0.41751,0.317693 0,0.182498 0.17769,0.317667 0.41751,0.317667 0.21588,0 0.2178,0.0024 0.2178,0.2859 v 0.286124 h -0.3424 c -0.24244,0 -0.38621,-0.03554 -0.49239,-0.121506 l -0.15008,-0.121506 v -2.012555 -2.012554 l 0.15008,-0.121506 c 0.14,-0.113342 0.27293,-0.121506 1.99652,-0.121506 h 1.84655 l -0.13087,0.142877 c -0.072,0.07852 -0.1981,0.271612 -0.28002,0.428872 -0.20771,0.398617 -0.21299,1.182113 -0.0102,1.563992 0.22524,0.424406 0.44376,0.640379 0.85647,0.846627 0.31722,0.158485 0.46699,0.194265 0.81325,0.194265 1.50161,0 2.3492,-1.686818 1.46257,-2.910761 l -0.19259,-0.265969 h 1.83986 1.83987 l -0.16232,0.174815 c -0.28218,0.303717 -0.42156,0.653298 -0.45313,1.136536 -0.0253,0.386562 -0.007,0.503865 0.12703,0.794183 0.21155,0.460377 0.42005,0.692247 0.82288,0.915375 0.29692,0.164489 0.40161,0.187542 0.84708,0.186341 0.42594,-0.001 0.56066,-0.02858 0.83167,-0.170731 0.6356,-0.332966 0.99027,-0.917994 0.99027,-1.633438 0,-0.481029 -0.11119,-0.806333 -0.39828,-1.164919 l -0.19067,-0.238209 h 1.81373 c 1.72901,0 1.81966,0.0048 1.94079,0.127029 0.12174,0.121746 0.12703,0.211794 0.12703,2.128393 0,1.916623 -0.005,2.006719 -0.12703,2.128417 -0.0963,0.09629 -0.2118,0.127029 -0.4765,0.127029 h -0.34944 v -0.285898 c 0,-0.278744 0.005,-0.2859 0.20147,-0.2859 0.21828,0 0.43384,-0.152482 0.43384,-0.306646 0,-0.172173 -0.20123,-0.328714 -0.42281,-0.328714 -0.17026,0 -0.21252,-0.02521 -0.21252,-0.127029 0,-0.100373 0.0423,-0.127029 0.20147,-0.127029 0.21828,0 0.43386,-0.152242 0.43386,-0.306622 0,-0.172174 -0.20123,-0.328714 -0.42281,-0.328714 -0.17026,0 -0.21252,-0.02521 -0.21252,-0.127029 0,-0.09653 0.0423,-0.127029 0.1765,-0.127029 0.097,0 0.24012,-0.04442 0.31766,-0.09893 0.28184,-0.197387 0.10713,-0.536451 -0.27629,-0.536451 -0.17554,0 -0.21779,-0.02473 -0.21779,-0.127029 0,-0.09653 0.0423,-0.127029 0.17649,-0.127029 0.2238,0 0.45887,-0.162087 0.45887,-0.316755 0,-0.231966 -0.17315,-0.318604 -0.63628,-0.318604 -0.65848,0 -0.63442,-0.07877 -0.63442,2.079022 v 1.796582 h -0.52733 c -0.32544,0 -0.55652,0.0293 -0.60357,0.07636 -0.0516,0.05162 -0.0763,0.347588 -0.0763,0.916047 0,0.903802 -0.024,1.04082 -0.17602,1.04082 -0.0542,0 -0.45872,-0.121505 -0.89859,-0.270026 z m -1.73991,-3.75494 c -0.11287,-0.0473 -0.29671,-0.189702 -0.40825,-0.316852 -0.68927,-0.785033 -0.12967,-2.004846 0.9221,-2.010225 0.62939,-0.0024 1.22051,0.580731 1.22051,1.205742 0,0.419651 -0.34303,0.944096 -0.73064,1.117109 -0.24806,0.110703 -0.74383,0.112861 -1.00372,0.0048 z m -5.97093,0.01922 c -0.29863,-0.08285 -0.67256,-0.404596 -0.78602,-0.676135 -0.10273,-0.246133 -0.11164,-0.704758 -0.0192,-0.951924 0.15176,-0.401617 0.69446,-0.778142 1.12574,-0.781023 0.25698,-0.0017 0.62942,0.148881 0.82921,0.335198 0.53786,0.501679 0.50161,1.412421 -0.0738,1.851211 -0.36095,0.275332 -0.66268,0.337719 -1.07697,0.222601 z m -3.34969,-4.275267 c 0,-1.186076 0.0432,-1.424357 0.31041,-1.714698 0.33721,-0.36627 0.27781,-0.359643 3.22346,-0.359643 2.43647,0 2.72615,-0.0096 2.83043,-0.105177 0.0989,-0.08957 0.11623,-0.207232 0.11623,-0.79058 0,-0.636273 -0.0101,-0.692512 -0.1412,-0.784338 -0.0776,-0.05427 -0.18755,-0.09893 -0.244,-0.09893 -0.23004,0 -0.88398,-0.399121 -1.198,-0.731148 -0.58081,-0.61411 -0.83906,-1.411005 -0.70563,-2.17726 0.14696,-0.844034 0.68228,-1.554267 1.46156,-1.939243 0.38843,-0.191865 0.45111,-0.20339 1.11185,-0.202191 0.61901,9.38e-4 0.74075,0.01922 1.04965,0.165211 0.54185,0.254442 0.97606,0.687084 1.25379,1.2493 0.2286,0.462972 0.23917,0.51251 0.23917,1.122753 -1.1e-4,0.581955 -0.0168,0.675222 -0.19714,1.054412 -0.34582,0.730331 -0.83273,1.162782 -1.60076,1.421665 l -0.42565,0.143598 -0.0192,0.751343 c -0.0121,0.477716 0.007,0.776414 0.0506,0.820165 0.0461,0.04635 0.97152,0.07924 2.82484,0.10061 2.65863,0.03074 2.7623,0.0365 2.93144,0.162808 0.42393,0.316684 0.43547,0.360892 0.45692,1.747739 l 0.0192,1.266221 h -6.67483 -6.6748 z m 7.21114,-4.41693 c 1.45686,-0.381111 2.00331,-2.137519 1.00906,-3.243342 -0.40423,-0.44962 -0.86219,-0.659926 -1.4482,-0.665064 -1.73633,-0.01441 -2.63838,2.023336 -1.46838,3.318406 0.43817,0.485015 1.29536,0.750118 1.90752,0.59 z m -1.11638,-0.747429 c -0.44105,-0.24013 -0.65099,-0.581091 -0.68252,-1.108753 -0.0192,-0.329434 0.002,-0.471399 0.10273,-0.66713 0.37556,-0.730427 1.13478,-0.981147 1.85909,-0.613941 0.78587,0.398401 0.98844,1.395974 0.42279,2.082193 -0.40246,0.488257 -1.12907,0.619583 -1.7022,0.307631 z m 5.86559,2.464143 c -0.77267,-0.02162 -0.77832,-0.02401 -0.77832,-0.174814 v -0.152259 h 1.08011 1.08008 v 0.344947 0.344971 l -0.3018,-0.170252 c -0.27286,-0.153684 -0.37638,-0.172174 -1.08007,-0.192585 z m -11.9346,-0.239169 c 0.0268,-0.07036 0.25234,-0.08813 1.11587,-0.08813 h 1.08207 v 0.152242 c 0,0.151282 -0.005,0.152483 -0.7801,0.174815 -0.68772,0.0192 -0.81756,0.04178 -1.09599,0.185621 l -0.31584,0.163048 -0.0192,-0.249759 c -0.0119,-0.137355 -0.005,-0.289381 0.0144,-0.337792 z"
       id="path144852"
       sodipodi:nodetypes="csscsscccssssccccccccsssccsccssscsccscccccscccccccccccccccccsscsscssssscccccccccssscscssccsssccccccccccccccccccccccsscsccccssscccscsscsssssccssssssscsscsscscscccsssccsccscsccccccccscccccssssscscccsssscssscccssccccccscsssssscssscsscccssscssccscscccsssccccsssscscsssccccccssscscsscccccsscccssscssccccsssscccssssssscccccccssccccccsssssscsssscsscscccsssscssssscsccscsscscccssssccssccscccscsscscccccssscccssscscsscsccssccssscsccscscssccsssscccccssssccsssssssssssscccscssscccscscscsscsscssccscssssscccsssccsscccccssscccsssscsssssscsscsccccccscsccssscssscccsscssccssssssssssssscssscscsccccssssssssssssscssscsscccccssssssssssssscsssccscsssscccccsscssscccccccccccccccccccccccccccccccccccccccccccccccccccccccccccccccccccccccccccccccccccccscccssscccscscccscscccccccccsscsssssssssssssssssscsccccssccscssscccssssccsscscscscsssssssssscsssssscsssscccccssccccsssscccsscscssssccssccccccccccccsscsssssssssssccccccsssscsccccsss" />
    <path
       id="path144854"
       style="stroke-width:0.480261;stroke-linecap:square;stroke-linejoin:bevel;stop-color:#000000"
       d="m 117.65062,113.56818 h -2.3874 l 1.89757,3.62042 h 2.3874 z"
       sodipodi:nodetypes="ccccc" />
    <path
       id="path144856"
       style="stroke-width:0.480261;stroke-linecap:square;stroke-linejoin:bevel;stop-color:#000000"
       d="m 112.8758,113.56818 h -2.3874 l 1.89757,3.62042 h 2.3874 z"
       sodipodi:nodetypes="ccccc" />
    <path
       id="path144858"
       style="stroke-width:0.480261;stroke-linecap:square;stroke-linejoin:bevel;stop-color:#000000"
       d="m 108.10097,113.56818 h -2.38739 l 1.89757,3.62042 h 2.3874 z"
       sodipodi:nodetypes="ccccc" />
    <path
       id="path144860"
       style="stroke-width:0.480261;stroke-linecap:square;stroke-linejoin:bevel;stop-color:#000000"
       d="m 103.32615,113.56818 h -2.3874 l 1.89759,3.62042 h 2.38739 z"
       sodipodi:nodetypes="ccccc" />
    <path
       id="path144862"
       style="stroke-width:0.480261;stroke-linecap:square;stroke-linejoin:bevel;stop-color:#000000"
       d="m 121.55388,113.57909 -1.51584,-0.012 1.36161,2.59785 0.31247,-0.79161 -0.007,-1.11373 z"
       sodipodi:nodetypes="cccccc" />
    <path
       id="path1349"
       style="fill:#ffcc00;stroke:none;stroke-width:0.0635344"
       d="m 130.12579,107.12965 c 0,0 0.1669,0.0677 0.19739,0.12655 0.11074,0.21252 1.46798,4.47302 1.46798,4.60749 0,0.14264 -3.08176,3.64705 -3.2921,3.7438 -0.14769,0.068 -0.96987,-0.15152 -1.04983,-0.28043 -0.0483,-0.0778 0.0382,-0.59501 0.32886,-1.97055 0.21684,-1.02531 0.39386,-1.987 0.39335,-2.13685 -0.002,-0.58354 -0.0797,-1.07797 -0.0797,-1.07797 1.64144,-1.29442 2.0341,-3.01204 2.0341,-3.01204 z"
       sodipodi:nodetypes="ccscccscc" />
    <path
       style="fill:#000000;stroke:none;stroke-width:0.0635344"
       d="m 127.96653,106.6589 c -0.92937,-0.1969 -1.14172,-0.22403 -1.22303,-0.15656 -0.11646,0.0965 -0.13111,0.41958 -0.0216,0.48687 0.0418,0.0259 0.76218,0.19402 1.60059,0.37359 l 1.52445,0.32651 0.65516,2.02768 c 0.36034,1.11522 0.6479,2.04749 0.63899,2.07168 -0.0102,0.0242 -0.65747,0.75794 -1.44129,1.63053 -1.32306,1.47291 -1.59278,1.71577 -1.59278,1.43424 l -9.2e-4,-3e-5 c 0,-0.0485 0.15727,-0.83181 0.34943,-1.74097 0.36639,-1.73325 0.39869,-2.03819 0.25768,-2.43349 -0.28433,-0.79716 -1.0023,-1.2531 -1.96856,-1.2501 l 0.34069,0.63008 c 0.6683,0.13424 1.08358,0.57889 1.08565,1.16242 5e-4,0.14984 -0.17649,1.11145 -0.39312,2.13673 -0.29077,1.37556 -0.37693,1.89179 -0.32864,1.96957 0.0799,0.12895 0.90154,0.34918 1.04939,0.28127 0.21035,-0.0968 3.29289,-3.6021 3.29289,-3.74469 0,-0.13447 -1.35831,-4.39431 -1.46895,-4.6068 -0.0304,-0.0589 -0.19739,-0.12703 -0.19739,-0.12703 z"
       id="path2138"
       sodipodi:nodetypes="ccssscccssssccscsscscc" />
  </g>
</svg>
