<?xml version="1.0" encoding="UTF-8" standalone="no"?>
<!-- Created with Inkscape (http://www.inkscape.org/) -->

<svg
   width="30.499737mm"
   height="75.525475mm"
   viewBox="0 0 30.499736 75.525475"
   version="1.1"
   id="svg8360"
   inkscape:version="1.1 (1:1.1+202105261517+ce6663b3b7)"
   sodipodi:docname="Suavizador01.svg"
   xmlns:inkscape="http://www.inkscape.org/namespaces/inkscape"
   xmlns:sodipodi="http://sodipodi.sourceforge.net/DTD/sodipodi-0.dtd"
   xmlns="http://www.w3.org/2000/svg"
   xmlns:svg="http://www.w3.org/2000/svg">
  <sodipodi:namedview
     id="namedview8362"
     pagecolor="#ffffff"
     bordercolor="#999999"
     borderopacity="1"
     inkscape:pageshadow="0"
     inkscape:pageopacity="0"
     inkscape:pagecheckerboard="0"
     inkscape:document-units="mm"
     showgrid="false"
     fit-margin-top="0"
     fit-margin-left="0"
     fit-margin-right="0"
     fit-margin-bottom="0"
     inkscape:zoom="0.67081229"
     inkscape:cx="-94.661355"
     inkscape:cy="433.05706"
     inkscape:window-width="1848"
     inkscape:window-height="1016"
     inkscape:window-x="72"
     inkscape:window-y="27"
     inkscape:window-maximized="1"
     inkscape:current-layer="layer1" />
  <defs
     id="defs8357" />
  <g
     inkscape:label="Capa 1"
     inkscape:groupmode="layer"
     id="layer1"
     transform="translate(-90.974624,-46.782556)">
    <path
       id="path6396"
       style="fill:#4d4d4d;fill-opacity:0.8;stroke-width:0.529167;stroke-linecap:square;stroke-linejoin:bevel;stop-color:#000000"
       d="m 92.486214,85.040201 c 1.89593,0.60461 6.64225,2.89032 15.636856,0.557 l 0.46614,27.850029 c -0.98872,2.23325 -11.747026,3.00219 -13.180606,-2.42473 z"
       sodipodi:nodetypes="ccccc" />
    <path
       id="path6398"
       style="fill:#b3b3b3;fill-opacity:0.995692;stroke-width:0.529167;stroke-linecap:square;stroke-linejoin:bevel;stop-color:#000000"
       d="m 92.651044,80.120646 c 3.85666,-2.577678 11.737716,-2.344924 15.426216,-1.995251 l 0.0458,7.471806 c -5.19808,2.18857 -15.931766,1.37407 -17.098186,-1.68591 -0.16755,-1.447327 0.0146,-2.804076 1.62616,-3.790645 z"
       sodipodi:nodetypes="cccccc" />
    <path
       id="path6400"
       style="fill:#808080;fill-opacity:0.982832;stroke-width:0.529167;stroke-linecap:square;stroke-linejoin:bevel;stop-color:#000000"
       d="m 92.651044,80.120646 c 3.85666,-2.577678 11.737716,-2.344924 15.426216,-1.995251 l 0.0183,5.366816 c -3.92845,3.03629 -21.087596,0.75678 -15.444556,-3.371565 z"
       sodipodi:nodetypes="ccccc" />
    <path
       id="path6384"
       style="fill:#0000ff;fill-opacity:1;stroke-width:0.529167;stroke-linecap:square;stroke-linejoin:bevel;stop-color:#000000"
       d="m 107.44678,61.544653 c 1.20769,-6.118755 13.03652,-4.434186 12.92352,-0.175677 l -0.54781,50.977624 c 0.0981,5.93711 -10.23469,5.53127 -11.30224,0.49109 z"
       sodipodi:nodetypes="ccccc" />
    <path
       id="path6386"
       style="fill:#000080;fill-opacity:0.938178;stroke-width:0.430419;stroke-linecap:square;stroke-linejoin:bevel;stop-color:#000000"
       d="m 111.34708,56.707597 v 1.110528 a 2.4560926,0.40623939 0 0 0 -5.1e-4,0.0026 2.4560926,0.40623939 0 0 0 2.45618,0.406694 2.4560926,0.40623939 0 0 0 2.45618,-0.406694 v -1.11311 z" />
    <path
       id="path6388"
       style="fill:#333333;fill-opacity:1;stroke-width:0.529167;stroke-linecap:square;stroke-linejoin:bevel;stop-color:#000000"
       d="m 106.5764,51.102222 5.24626,-0.236359 1.03712,2.438358 7.88777,-0.06274 -0.0662,2.662282 -3.69426,0.176663 -0.15922,0.804731 -5.4885,0.0318 c -3.24994,-0.05029 -3.38967,-0.571737 -3.33546,-4.363312 l -0.39912,-0.02264 z"
       sodipodi:nodetypes="ccccccccccc" />
    <path
       id="path6394"
       style="fill:#1a1a1a;fill-opacity:1;stroke-width:0.529167;stroke-linecap:square;stroke-linejoin:bevel;stop-color:#000000"
       d="m 108.51877,112.21148 c 0.0864,4.35773 10.11839,6.87537 11.34053,-0.0796 0.33302,-0.56972 0.0579,4.2308 0.0605,6.57943 -0.69433,3.7338 -8.48684,5.49525 -11.5345,0.60916 0.0306,-2.37862 -0.18172,-7.55031 0.13342,-7.12016 z"
       sodipodi:nodetypes="cccccc" />
    <path
       id="path6390"
       style="fill:#808080;fill-opacity:1;stroke-width:0.529167;stroke-linecap:square;stroke-linejoin:bevel;stop-color:#000000"
       d="m 105.15793,49.395274 c 2.08941,-2.481589 7.79574,-3.21005 14.23028,-2.122626 0.88739,1.329631 1.66106,4.016014 2.08615,6.081938 l -8.7012,0.102026 -1.06078,-2.440471 -6.36845,0.273058 z"
       sodipodi:nodetypes="ccccccc" />
    <path
       id="rect862-6"
       style="fill:#333333;fill-opacity:0.383032;stroke-width:0.529167;stroke-linecap:square;stroke-linejoin:bevel;stop-color:#000000"
       d="m 114.3267,47.876124 4.97092,0.477541 1.43695,4.28654 c -1.40962,0.321316 -2.98393,0.178827 -4.6048,-0.09476 z"
       sodipodi:nodetypes="ccccc" />
    <path
       id="rect3231-3"
       style="fill:#00ffff;fill-opacity:0.8;stroke-width:0.529167;stroke-linecap:square;stroke-linejoin:bevel;stop-color:#000000"
       d="m 116.59992,49.261081 2.41901,0.143579 0.38701,1.324864 -2.4314,-0.08777 z"
       sodipodi:nodetypes="ccccc" />
  </g>
</svg>
